<svg width="130" height="130" viewBox="0 0 130 130" fill="none" xmlns="http://www.w3.org/2000/svg">
<circle cx="65" cy="65" r="65" fill="#FF892E"/>
<path d="M90.883 54.551C89.1291 55.0271 88.0928 56.8346 88.5689 58.5884C89.1325 60.6658 89.4182 62.8234 89.4182 64.9996C89.4182 71.5221 86.878 77.6542 82.2664 82.2664C77.6542 86.8787 71.5221 89.4182 64.9996 89.4182C58.477 89.4182 52.345 86.878 47.7327 82.2664C43.1204 77.6542 40.5809 71.5221 40.5809 64.9996C40.5809 58.477 43.1211 52.345 47.7327 47.7327C52.345 43.1204 58.477 40.5809 64.9996 40.5809C68.2632 40.5809 71.43 41.2128 74.4124 42.46C76.0887 43.1609 78.0162 42.3705 78.7177 40.6936C79.4186 39.0167 78.6282 37.0899 76.9513 36.3884C73.1606 34.8036 69.1397 34 64.9996 34C60.8594 34 56.7557 34.8202 52.9318 36.4374C49.2399 37.9989 45.9252 40.2335 43.0793 43.0793C40.2335 45.9252 37.9989 49.2399 36.4374 52.9318C34.8202 56.7564 34 60.8163 34 64.9996C34 69.1828 34.8202 73.2435 36.4374 77.0673C37.9989 80.7593 40.2335 84.0739 43.0793 86.9198C45.9252 89.7657 49.2399 92.0002 52.9318 93.5617C56.7557 95.1789 60.8156 95.9992 64.9996 95.9992C69.1835 95.9992 73.2435 95.1789 77.0673 93.5617C80.7593 92.0002 84.0739 89.7657 86.9198 86.9198C89.7657 84.0739 92.0002 80.7593 93.5617 77.0673C95.1789 73.2435 95.9992 69.1835 95.9992 64.9996C95.9992 62.2412 95.6365 59.5041 94.9204 56.8651C94.4449 55.1113 92.6381 54.0756 90.883 54.551Z" fill="white"/>
<path d="M54.7248 61.1804C53.4398 59.8954 51.3564 59.8954 50.0714 61.1804C48.7864 62.4654 48.7864 64.5488 50.0714 65.8338L61.0617 76.8241C61.6804 77.4427 62.5178 77.7875 63.3884 77.7875C63.4494 77.7875 63.5098 77.7855 63.5708 77.7822C64.5057 77.7305 65.3736 77.2829 65.9584 76.5515L89.4488 47.1718C90.5833 45.7522 90.3532 43.6821 88.9336 42.547C87.514 41.4118 85.4439 41.6425 84.3087 43.0622L63.1146 69.5708L54.7241 61.1804H54.7248Z" fill="white"/>
</svg>
