<svg width="130" height="130" viewBox="0 0 130 130" fill="none" xmlns="http://www.w3.org/2000/svg">
<circle cx="65" cy="65" r="65" fill="#FF892E"/>
<g clip-path="url(#clip0_1674_12771)">
<path d="M70.3121 89.3841H70.9538C70.7462 89.3271 70.5197 89.3461 70.3121 89.3841Z" fill="black" stroke="black" stroke-width="0.3" stroke-miterlimit="10"/>
<path d="M95.6201 96.9998C101.353 96.9998 106 92.3232 106 86.5543C106 80.7855 101.353 76.1089 95.6201 76.1089C89.8875 76.1089 85.2402 80.7855 85.2402 86.5543C85.2402 92.3232 89.8875 96.9998 95.6201 96.9998Z" fill="white"/>
<path d="M91.8251 87.0102C91.469 86.6694 90.9024 86.6694 90.5463 87.0102C90.1901 87.351 90.1901 87.8932 90.5463 88.234L93.5735 91.1308C93.7515 91.3012 93.9782 91.3787 94.221 91.3787C94.2372 91.3787 94.2534 91.3787 94.2696 91.3787C94.5286 91.3787 94.7714 91.2392 94.9333 91.0534L101.409 83.2924C101.716 82.9206 101.651 82.3784 101.263 82.0686C100.874 81.7743 100.308 81.8362 99.984 82.208L94.14 89.2099L91.8251 86.9947V87.0102Z" fill="#FF892E" stroke="#FF892E" stroke-width="0.3" stroke-miterlimit="10" stroke-linejoin="round"/>
<path d="M72.9731 86.3454H33.3032L52.2134 67.3157L56.6484 71.6648C60.3852 75.3113 66.33 75.3113 70.0668 71.6648L74.5018 67.3157L85.2969 78.255C85.9197 77.4763 86.6179 76.7926 87.3728 76.1659L76.5967 65.3216L95.4125 47.2225V73.2602C95.4125 73.2602 95.5446 73.2602 95.6201 73.2602C96.6015 73.2602 97.5451 73.3741 98.451 73.583V46.2729C98.3378 44.0319 96.5826 42.2847 94.3557 42.2847H32.2463C30.0382 42.2847 28.2831 44.0509 28.2831 46.2729V85.3959C28.2831 87.6369 30.0382 89.3841 32.2463 89.3841H53.7232C53.7987 89.2702 53.8742 89.1562 53.9685 89.0233C53.893 89.1372 53.7987 89.2512 53.7232 89.3841H70.3121C70.5197 89.3461 70.7462 89.3271 70.9538 89.3841H82.7113C82.5037 88.4725 82.3905 87.5229 82.3905 86.5354C82.3905 86.4594 82.3905 86.4024 82.3905 86.3265H72.9354M31.2083 84.2184V47.2225L50.0053 65.3026L31.2083 84.2184ZM67.9719 69.5378C65.4053 72.0067 61.1967 72.0067 58.63 69.5378L33.3032 45.2284H93.2988L67.9719 69.5378Z" fill="white"/>
<path d="M72.9731 86.3454H33.3032L52.2134 67.3157L56.6484 71.6648C60.3852 75.3113 66.33 75.3113 70.0668 71.6648L74.5018 67.3157L85.2969 78.255C85.9197 77.4763 86.6179 76.7926 87.3728 76.1659L76.5967 65.3216L95.4125 47.2225V73.2602C95.4125 73.2602 95.5446 73.2602 95.6201 73.2602C96.6015 73.2602 97.5451 73.3741 98.451 73.583V46.2729C98.3378 44.0319 96.5826 42.2847 94.3557 42.2847H32.2463C30.0382 42.2847 28.2831 44.0509 28.2831 46.2729V85.3959C28.2831 87.6369 30.0382 89.3841 32.2463 89.3841H53.7232M53.7232 89.3841C53.7987 89.2702 53.8742 89.1562 53.9685 89.0233C53.893 89.1372 53.7987 89.2512 53.7232 89.3841ZM53.7232 89.3841H70.3121C70.5197 89.3461 70.7462 89.3271 70.9538 89.3841H82.7113C82.5037 88.4725 82.3905 87.5229 82.3905 86.5354C82.3905 86.4594 82.3905 86.4024 82.3905 86.3265H72.9354M31.2083 84.2184V47.2225L50.0053 65.3026L31.2083 84.2184ZM67.9719 69.5378C65.4053 72.0067 61.1967 72.0067 58.63 69.5378L33.3032 45.2284H93.2988L67.9719 69.5378Z" stroke="white" stroke-width="0.8" stroke-miterlimit="10"/>
</g>
<defs>
<clipPath id="clip0_1674_12771">
<rect width="78" height="55" fill="white" transform="translate(28 42)"/>
</clipPath>
</defs>
</svg>
