<svg width="194" height="194" viewBox="0 0 194 194" fill="none" xmlns="http://www.w3.org/2000/svg">
<path d="M177.991 64.3057C172.503 65.7953 169.26 71.4512 170.75 76.939C172.514 83.4393 173.408 90.1906 173.408 97C173.408 117.41 165.459 136.597 151.029 151.029C136.597 165.461 117.41 173.408 97 173.408C76.5904 173.408 57.4029 165.459 42.9707 151.029C28.5386 136.597 20.5922 117.41 20.5922 97C20.5922 76.5904 28.5406 57.4029 42.9707 42.9707C57.4029 28.5386 76.5904 20.5922 97 20.5922C107.212 20.5922 117.121 22.5694 126.454 26.4721C131.699 28.6651 137.73 26.192 139.925 20.9449C142.118 15.6978 139.645 9.66846 134.398 7.47335C122.536 2.51463 109.955 0 97 0C84.0451 0 71.2043 2.5665 59.239 7.62688C47.6867 12.513 37.3149 19.505 28.4099 28.4099C19.505 37.3149 12.513 47.6867 7.62688 59.239C2.5665 71.2064 0 83.9102 0 97C0 110.09 2.5665 122.796 7.62688 134.761C12.513 146.313 19.505 156.685 28.4099 165.59C37.3149 174.495 47.6867 181.487 59.239 186.373C71.2043 191.434 83.9082 194 97 194C110.092 194 122.796 191.434 134.761 186.373C146.313 181.487 156.685 174.495 165.59 165.59C174.495 156.685 181.487 146.313 186.373 134.761C191.434 122.796 194 110.092 194 97C194 88.3689 192.865 79.8042 190.624 71.5466C189.137 66.0588 183.483 62.818 177.991 64.3057Z" fill="#FF892E"/>
<path d="M64.8502 85.0501C60.8292 81.0292 54.3103 81.0292 50.2894 85.0501C46.2685 89.071 46.2685 95.59 50.2894 99.6109L84.6788 134C86.6146 135.936 89.235 137.015 91.9592 137.015C92.1501 137.015 92.3389 137.009 92.5298 136.998C95.4552 136.837 98.1711 135.436 100.001 133.148L173.504 41.2163C177.054 36.7742 176.334 30.2967 171.892 26.7447C167.45 23.1927 160.973 23.9147 157.421 28.3568L91.1023 111.304L64.8481 85.0501H64.8502Z" fill="#FF892E"/>
</svg>
