<svg width="315" height="280" viewBox="0 0 315 280" fill="none" xmlns="http://www.w3.org/2000/svg">
<path d="M157.323 34.3262C157.026 33.9382 156.73 33.5274 156.41 33.1394C154.173 30.3321 151.754 27.6617 149.175 25.1511C148.308 24.3067 147.44 23.485 146.55 22.6862C144.77 21.0885 142.921 19.5593 141.027 18.0986C137.216 15.1772 133.153 12.5753 128.885 10.3158C126.762 9.17461 124.571 8.12473 122.335 7.18896C117.861 5.27178 113.205 3.71977 108.389 2.55577C101.77 0.958118 94.8777 0.0223488 87.7568 0.0223488C39.3022 -0.000474794 0 39.279 0 87.7563C0 136.234 39.3022 175.536 87.7796 175.536C94.9005 175.536 101.793 174.6 108.412 173.002C115.624 171.268 122.494 168.62 128.908 165.22C133.176 162.96 137.238 160.358 141.05 157.437C142.967 155.976 144.793 154.447 146.573 152.849C147.463 152.05 148.331 151.229 149.198 150.384C150.91 148.718 152.553 146.961 154.128 145.158C154.47 144.747 154.79 144.313 155.132 143.902C155.885 143.012 156.593 142.076 157.323 141.164C145.957 126.374 139.178 107.864 139.178 87.7563C139.178 67.6487 145.957 49.1159 157.346 34.3034L157.323 34.3262Z" fill="#FF892E"/>
<path d="M314.35 80.0196C312.935 63.8148 307.115 48.8882 298.077 36.4265C297.963 36.2895 297.871 36.1298 297.757 35.97C297.05 35.0114 296.319 34.0528 295.566 33.1171C293.329 30.3098 290.91 27.6394 288.331 25.1288C287.464 24.2843 286.597 23.4627 285.706 22.6638C283.926 21.0662 282.077 19.537 280.183 18.0763C276.372 15.1549 272.309 12.553 268.041 10.2935C265.918 9.15227 263.727 8.10239 261.491 7.16662C257.017 5.24944 252.361 3.69743 247.545 2.53342C240.926 0.935769 234.034 0 226.913 0C198.566 0 173.346 13.4659 157.301 34.3267C157.734 34.8745 158.168 35.4222 158.579 35.9928C158.693 36.1298 158.784 36.2895 158.898 36.4493C167.937 48.911 173.757 63.8376 175.172 80.0424C175.4 82.553 175.514 85.0636 175.514 87.6198C175.605 59.3414 198.634 36.3808 226.913 36.3808C230.793 36.3808 234.764 36.8829 239.009 37.91C241.817 38.5947 244.533 39.4848 247.157 40.6032C248.458 41.151 249.736 41.79 251.015 42.4519C253.479 43.7529 255.876 45.3049 258.09 46.9938C259.231 47.8611 260.327 48.774 261.354 49.687C261.947 50.2119 262.426 50.6684 262.906 51.1477C264.412 52.6312 265.85 54.2061 267.151 55.8494C267.47 56.2374 267.767 56.6254 268.064 57.0362C268.246 57.2873 268.429 57.5611 268.612 57.8122C274.021 65.2755 277.307 74.0626 278.106 83.2377C278.243 84.9038 278.334 86.4102 278.334 87.8024C278.334 90.3815 278.106 93.0518 277.65 95.9733C277.125 99.2142 276.372 102.273 275.39 105.011C275.139 105.719 274.888 106.381 274.637 107.02C273.062 110.923 270.985 114.643 268.475 118.067C267.813 118.957 267.105 119.778 266.42 120.623C266.078 121.034 265.736 121.444 265.416 121.878C264.663 122.723 263.819 123.613 262.951 124.457C262.403 124.982 261.924 125.439 261.422 125.895C260.372 126.854 259.277 127.767 258.181 128.588C255.922 130.323 253.525 131.852 251.037 133.176C247.249 135.184 243.232 136.713 239.078 137.718C234.833 138.745 230.861 139.247 226.981 139.247C198.703 139.247 175.674 116.286 175.582 88.0078C175.582 92.6639 175.172 97.2514 174.441 101.702C173.597 107.066 172.296 112.292 170.493 117.291C170.082 118.432 169.648 119.573 169.192 120.714C166.453 127.47 162.893 133.815 158.625 139.635C158.214 140.183 157.757 140.708 157.324 141.255C173.369 162.139 198.589 175.628 226.958 175.628C234.079 175.628 240.972 174.692 247.591 173.094C254.803 171.36 261.673 168.712 268.087 165.311C272.355 163.052 276.417 160.45 280.229 157.529C282.146 156.068 283.972 154.539 285.752 152.941C286.642 152.142 287.509 151.321 288.377 150.476C290.089 148.81 291.732 147.052 293.307 145.249C293.649 144.839 293.969 144.405 294.311 143.994C295.498 142.556 296.707 141.141 297.803 139.635C302.071 133.838 305.631 127.493 308.37 120.714C308.827 119.596 309.26 118.455 309.671 117.291C311.451 112.292 312.752 107.066 313.62 101.702C314.35 97.1829 314.761 92.5497 314.761 87.8252C314.761 85.2234 314.624 82.6443 314.396 80.088L314.35 80.0196Z" fill="#D4FF1F"/>
<path d="M169.17 120.646C169.626 119.528 170.06 118.386 170.471 117.222C172.251 112.224 173.552 106.998 174.419 101.634C175.127 97.1605 175.538 92.5958 175.561 87.9398C175.561 87.8713 175.561 87.8257 175.561 87.78C175.561 87.7344 175.561 87.6659 175.561 87.6203C175.561 85.064 175.424 82.5306 175.218 80.0428C173.803 63.8381 167.983 48.9114 158.945 36.4497C158.831 36.3128 158.74 36.153 158.625 35.9933C158.215 35.4227 157.781 34.8977 157.347 34.3271C145.958 49.1397 139.18 67.6496 139.18 87.78C139.18 107.91 145.958 126.398 157.324 141.187C157.758 140.64 158.215 140.115 158.625 139.567C162.893 133.77 166.454 127.425 169.193 120.646H169.17Z" fill="#93E6D7"/>
<path d="M96.6376 68.8572V73.0111H124.619V83.2817H50.9219V73.0111H78.9264V68.8572H50.9219V60.2299H78.9264V55.9847H50.9219V44.8696H78.9264V39.9854H96.6376V44.8696H124.619V55.9847H96.6376V60.2299H124.619V68.8572H96.6376Z" fill="white"/>
<path d="M55.9199 89.6498V135.023H73.4713V119.343H101.932V122.447C101.932 122.927 101.544 123.269 100.768 123.429C99.9923 123.588 98.1664 123.68 95.2906 123.68C92.7116 123.68 90.5433 123.657 88.7859 123.588C90.0412 125.665 90.9313 127.56 91.4791 129.294C92.004 131.029 92.4605 133.106 92.8029 135.525C100.426 135.525 106.132 135.229 109.943 134.635C113.755 134.042 116.334 133.129 117.658 131.873C119.004 130.618 119.666 128.861 119.666 126.578V89.627H55.9199V89.6498ZM101.932 111.652H73.4713V107.498H101.932V111.652ZM101.932 102.317H73.4713V98.163H101.932V102.317Z" fill="white"/>
<path d="M32.0664 224.106V225.201H51.6719V231.204H0.0449219V225.201H19.6504V224.106H2.9207V219.085H19.6732V217.943H2.32728V211.461H19.6504V209.955H32.0436V211.461H49.3667V217.943H32.0436V219.085H48.7961V224.106H32.0436H32.0664ZM48.1799 251.243C48.1799 252.567 47.7006 253.594 46.7648 254.324C45.8291 255.055 44.026 255.579 41.3556 255.922C38.6853 256.264 34.6912 256.447 29.3504 256.447C29.0994 255.032 28.8027 253.822 28.4147 252.818C28.0495 251.814 27.4104 250.695 26.5431 249.486C27.7756 249.531 29.3048 249.554 31.1078 249.554C33.1163 249.554 34.3944 249.508 34.9422 249.394C35.49 249.303 35.7639 249.098 35.7639 248.824V248.344H15.8389V256.15H3.55976V232.345H48.1799V251.243ZM35.7867 238.393V237.298H15.8389V238.393H35.7639H35.7867ZM15.8617 242.753V243.848H35.7639V242.753H15.8389H15.8617Z" fill="black"/>
<path d="M116.49 239.307V250.811H101.381V256.813H89.7634V250.811H66.6659V239.307H73.5586V234.651C72.8511 235.496 72.0979 236.318 71.2763 237.071C70.3861 234.081 69.5645 231.502 68.7657 229.356C67.9668 227.188 67.0311 225.134 65.9355 223.148C67.7386 221.779 69.1765 219.907 70.2492 217.579C71.3219 215.229 71.8925 212.604 71.9153 209.637L83.8977 209.751C83.8292 210.687 83.7151 211.668 83.5782 212.718H114.481V223.628H101.381V226.229H113.043V235.861H101.381V239.307H116.49ZM89.7862 223.628H80.5198L79.3102 226.229H89.809V223.628H89.7862ZM84.9704 235.861V239.307H89.7862V235.861H84.9704Z" fill="black"/>
<path d="M183.525 243.712C182.703 245.286 182.178 246.953 181.904 248.733C181.631 250.513 181.402 252.864 181.197 255.808C174.829 256.082 169.511 256.242 165.198 256.242C159.286 256.242 154.585 255.922 151.047 255.283C147.509 254.644 144.428 253.594 141.78 252.134C140.092 253.435 137.535 255.009 134.157 256.858L133.884 255.648C133.29 252.704 132.742 250.308 132.286 248.482C131.829 246.656 131.282 244.898 130.643 243.232C131.533 242.981 132.354 242.662 133.13 242.274C133.906 241.863 134.523 241.475 134.979 241.064V236.636H131.807L131.852 226.64H144.725C146.322 223.399 147.532 220.454 148.354 217.761C149.175 215.068 149.837 212.443 150.294 209.864L160.519 211.188L159.88 214.087H162.116L163.075 210.092L174.144 211.599L172.821 214.087H181.562V221.481H172.227V222.691H180.763V228.557H172.227V229.766H180.763V235.632H172.227V236.842H181.813V243.757H147.897V229.219C147.464 229.105 146.916 228.968 146.254 228.785V243.689C150.59 244.784 156.684 245.332 164.49 245.332C170.63 245.332 176.975 244.784 183.525 243.689V243.712ZM144.885 225.43C140.228 223.946 135.801 222.782 131.624 221.984L134.751 211.508C139.704 212.877 143.994 214.269 147.623 215.684L144.862 225.43H144.885ZM158.396 222.714H162.322V221.504H158.396V222.714ZM158.396 229.789H162.322V228.58H158.396V229.789ZM158.396 236.865H162.322V235.655H158.396V236.865Z" fill="black"/>
<path d="M248.5 220.454H236.586V221.778H247.61V248.071C247.61 250.444 247.404 252.179 246.993 253.251C246.583 254.324 245.692 255.1 244.346 255.557C242.976 256.013 240.763 256.264 237.704 256.264C237.636 254.484 237.499 252.863 237.271 251.426C237.065 249.965 236.677 248.39 236.152 246.701L237.202 246.815C237.385 246.815 237.499 246.77 237.567 246.701C237.636 246.61 237.681 246.45 237.681 246.222V245.377H235.239V255.009H226.909V245.377H224.307V255.785H214.401V244.51L212.438 248.618C212.256 248.185 212.073 247.614 211.914 246.929C211.662 246.245 211.411 245.514 211.16 244.715C210.909 243.917 210.635 243.141 210.316 242.319V256.607H200.616V248.002L198.128 250.787C197.991 247.842 197.763 245.218 197.443 242.912C197.124 240.607 196.599 238.348 195.846 236.134C198.379 233.76 200.821 230.131 203.149 225.293H197.854V213.607H200.502V210.161H211.366V213.607H213.374V225.247C211.959 228.488 210.932 230.77 210.293 232.162V234.582C211.343 232.391 212.142 230.519 212.69 228.944L214.378 231.135V221.801H225.882V220.477H214.584V211.69H225.882V209.932H236.54V211.69H237.179L238.617 208.54C240.146 209.316 241.676 210.366 243.228 211.69H248.477V220.477L248.5 220.454ZM214.424 239.717V235.426C213.671 236.271 212.941 237.07 212.187 237.777C212.393 237.983 213.146 238.622 214.424 239.717ZM226.931 230.633V228.442H224.33V230.633H226.931ZM224.33 236.864V239.055H226.931V236.864H224.33ZM235.239 230.633H237.681V228.442H235.239V230.633ZM235.239 236.864V239.055H237.681V236.864H235.239Z" fill="black"/>
<path d="M266.099 251.769C266.761 250.605 267.4 249.235 267.948 247.661C270.161 247.775 272.512 247.843 274.932 247.843C275.525 247.889 276.37 247.912 277.419 247.912C277.282 249.806 277.054 251.404 276.78 252.659C276.506 253.914 276.073 255.352 275.502 256.927C270.595 256.242 266.396 255.786 262.949 255.603C264.364 254.234 265.414 252.956 266.076 251.792L266.099 251.769ZM268.016 227.964V221.779H264.09V212.261H270.869L270.435 210.8L280.295 210.139L280.82 212.261H283.194V210.024H294.218V212.261H296.614L297.139 210.139L306.999 210.8L306.565 212.261H313.344V221.779H309.943V227.964H267.97H268.016ZM294.309 242.502H313.344V246.862H264.273V242.502H283.308V241.955H265.391V237.846H283.308V237.116H265.277V228.808H312.34V237.116H294.332V237.846H312.248V241.955H294.332V242.502H294.309ZM302.366 218.401H275.114V219.177H302.366V218.401ZM277.397 231.73H276.758V234.103H277.716L277.397 231.73ZM285.248 247.843L287.005 247.775C287.074 248.049 287.165 248.368 287.234 248.688C287.325 249.007 287.393 249.372 287.462 249.783C288.238 252.978 288.717 255.124 288.9 256.265C285.933 256.265 282.372 256.448 278.241 256.813C278.446 252.659 278.538 249.737 278.515 248.026C279.953 248.071 282.212 248.026 285.248 247.843ZM281.482 224.038H296.523V222.828H281.482V224.038ZM283.285 234.103V231.73H282.326L282.441 234.103H283.285ZM290.338 247.98C293.305 247.82 295.541 247.661 297.025 247.501C297.732 248.551 298.463 249.874 299.216 251.495C299.969 253.115 300.608 254.713 301.087 256.288C298.052 256.288 294.56 256.47 290.589 256.836C290.269 255.306 289.881 253.663 289.425 251.929C288.968 250.194 288.58 248.916 288.261 248.117L290.338 248.003V247.98ZM294.309 231.752V234.126H294.948L295.108 231.752H294.309ZM309.464 249.144C311.518 251.495 313.115 253.412 314.279 254.896C311.13 255.261 307.524 255.877 303.415 256.767C302.708 255.398 301.955 253.983 301.156 252.522C300.357 251.061 299.513 249.646 298.577 248.231C302.206 247.752 305.173 247.295 307.478 246.907L309.441 249.144H309.464ZM300.814 234.126V231.752H300.06C299.923 232.802 299.787 233.601 299.695 234.126H300.814Z" fill="black"/>
<path d="M14.836 268.088L14.5392 268.567C13.3981 270.37 12.4167 271.945 11.6178 273.314C10.819 274.684 10.1343 275.962 9.58653 277.103V279.842H5.43263V276.829C5.04463 276.031 4.56533 275.186 4.04039 274.319C3.51545 273.451 2.76227 272.287 1.78086 270.781C1.00485 269.64 0.434262 268.727 0.0234375 268.088H4.47404C4.79357 268.75 5.31851 269.731 6.02605 271.009C6.7564 272.333 7.2357 273.246 7.50958 273.794C7.87476 273.018 8.37688 272.036 9.01594 270.895C9.74629 269.549 10.2484 268.613 10.4995 268.088H14.836Z" fill="#7D7D7D"/>
<path d="M17.5965 278.381C16.4554 277.308 15.8848 275.802 15.8848 273.862C15.8848 271.922 16.4554 270.438 17.5965 269.366C18.7377 268.293 20.5408 267.745 22.9829 267.745C25.425 267.745 27.2509 268.293 28.3921 269.366C29.5333 270.438 30.1039 271.945 30.1039 273.862C30.1039 275.779 29.5333 277.331 28.3921 278.404C27.2509 279.476 25.4479 280.001 22.9829 280.001C20.518 280.001 18.7605 279.454 17.5965 278.381ZM25.5163 276.007C26.0413 275.551 26.2923 274.843 26.2923 273.862C26.2923 272.88 26.0413 272.196 25.5163 271.739C24.9914 271.283 24.1469 271.055 22.9601 271.055C21.7733 271.055 20.9516 271.283 20.4267 271.739C19.9017 272.196 19.6507 272.903 19.6507 273.862C19.6507 274.82 19.9017 275.528 20.4267 276.007C20.9516 276.464 21.7961 276.692 22.9601 276.692C24.1241 276.692 24.9914 276.464 25.5163 276.007Z" fill="#7D7D7D"/>
<path d="M41.9264 268.065H45.8749V274.501C45.8749 276.099 45.3271 277.4 44.2772 278.427C43.2273 279.454 41.4699 279.979 38.9821 279.979C36.4944 279.979 34.7598 279.477 33.824 278.495C32.8882 277.514 32.4546 276.213 32.4774 274.592V268.042H36.4259V274.341C36.4259 274.821 36.4716 275.209 36.54 275.505C36.6085 275.802 36.8367 276.076 37.2019 276.35C37.5899 276.601 38.1833 276.738 39.0278 276.738C39.9407 276.738 40.6026 276.601 41.0363 276.35C41.4699 276.076 41.721 275.802 41.7894 275.46C41.8807 275.14 41.9036 274.729 41.9036 274.204V268.065H41.9264Z" fill="#7D7D7D"/>
<path d="M62.0574 271.489C60.3913 271.443 58.7708 271.397 57.196 271.397V279.842H53.2019V271.397C51.6271 271.397 50.0066 271.443 48.3633 271.489V268.088H62.0574V271.489Z" fill="#7D7D7D"/>
<path d="M77.8518 268.088C77.7833 269.914 77.7377 271.877 77.7377 273.954C77.7377 276.03 77.7833 278.016 77.8518 279.819H74.1087V275.414H68.2431V279.819H64.5C64.5913 277.719 64.6369 275.757 64.6369 273.954C64.6369 272.15 64.5913 270.165 64.5 268.088H68.2431V272.493H74.1087V268.088H77.8518Z" fill="#7D7D7D"/>
<path d="M96.089 275.414L96.9107 268.088H100.814L98.6681 279.842H93.761L92.6655 273.292L91.4102 279.842H86.7314L84.5859 268.088H88.4888L89.3104 275.323L90.5885 268.088H94.8566L96.1119 275.414H96.089Z" fill="#7D7D7D"/>
<path d="M112.042 279.842C111.837 279.226 111.563 278.45 111.221 277.537H106.131L105.332 279.842H101.338L105.811 268.088H111.677L116.173 279.842H112.042ZM110.33 275.003C109.92 273.862 109.509 272.744 109.075 271.603L108.687 270.553C108.322 271.534 107.774 273.018 107.044 275.003H110.308H110.33Z" fill="#7D7D7D"/>
<path d="M131.238 268.088C131.169 269.914 131.124 271.854 131.124 273.954C131.124 276.053 131.169 278.016 131.238 279.819H125.532L121.675 270.986L121.972 279.819H117.863C117.955 277.719 118 275.757 118 273.954C118 272.15 117.955 270.188 117.863 268.088H123.729L127.609 277.172L127.335 268.088H131.238Z" fill="#7D7D7D"/>
<path d="M147.352 271.489C145.686 271.443 144.066 271.397 142.491 271.397V279.842H138.497V271.397C136.922 271.397 135.302 271.443 133.658 271.489V268.088H147.352V271.489Z" fill="#7D7D7D"/>
<path d="M167.821 271.489C166.155 271.443 164.535 271.397 162.96 271.397V279.842H158.966V271.397C157.391 271.397 155.77 271.443 154.127 271.489V268.088H167.821V271.489Z" fill="#7D7D7D"/>
<path d="M171.018 278.381C169.877 277.308 169.307 275.802 169.307 273.862C169.307 271.922 169.877 270.438 171.018 269.366C172.16 268.293 173.963 267.745 176.405 267.745C178.847 267.745 180.673 268.293 181.814 269.366C182.955 270.438 183.526 271.945 183.526 273.862C183.526 275.779 182.955 277.331 181.814 278.404C180.673 279.476 178.87 280.001 176.405 280.001C173.94 280.001 172.182 279.454 171.018 278.381ZM178.938 276.007C179.463 275.551 179.714 274.843 179.714 273.862C179.714 272.88 179.463 272.196 178.938 271.739C178.413 271.283 177.569 271.055 176.382 271.055C175.195 271.055 174.373 271.283 173.849 271.739C173.324 272.196 173.073 272.903 173.073 273.862C173.073 274.82 173.324 275.528 173.849 276.007C174.373 276.464 175.218 276.692 176.382 276.692C177.546 276.692 178.413 276.464 178.938 276.007Z" fill="#7D7D7D"/>
<path d="M194.045 276.875C198.085 276.875 201.006 276.783 202.832 276.692C202.764 277.126 202.718 277.582 202.695 278.061C202.695 278.541 202.673 279.111 202.673 279.842H190.279C190.371 277.742 190.416 275.779 190.416 273.976C190.416 272.173 190.371 270.187 190.279 268.11H202.673V271.032H194.045V272.584C194.547 272.584 195.3 272.584 196.305 272.584C197.994 272.584 199.751 272.561 201.554 272.492V275.277C199.751 275.208 197.994 275.186 196.305 275.186C195.3 275.186 194.547 275.186 194.045 275.186V276.875Z" fill="#7D7D7D"/>
<path d="M214.362 279.842C214.157 279.226 213.883 278.45 213.541 277.537H208.451L207.652 279.842H203.658L208.132 268.088H213.997L218.494 279.842H214.362ZM212.651 275.003C212.24 273.862 211.829 272.744 211.395 271.603L211.007 270.553C210.642 271.534 210.094 273.018 209.364 275.003H212.628H212.651Z" fill="#7D7D7D"/>
<path d="M233.235 271.489C231.569 271.443 229.949 271.397 228.374 271.397V279.842H224.38V271.397C222.805 271.397 221.184 271.443 219.541 271.489V268.088H233.235V271.489Z" fill="#7D7D7D"/>
<path d="M247.249 268.088C249.372 268.088 250.833 268.476 251.677 269.229C252.499 269.982 252.932 271.055 252.932 272.447C252.932 273.406 252.773 274.205 252.43 274.867C252.088 275.528 251.517 276.053 250.696 276.418C249.874 276.784 248.733 276.966 247.272 276.966H243.963V279.819H240.037C240.128 277.719 240.174 275.757 240.174 273.954C240.174 272.15 240.128 270.165 240.037 268.088H243.963H247.272H247.249ZM246.131 273.839C247.021 273.839 247.683 273.794 248.117 273.725C248.55 273.657 248.87 273.52 249.052 273.337C249.235 273.155 249.326 272.881 249.326 272.538C249.326 272.196 249.235 271.922 249.075 271.74C248.915 271.557 248.596 271.443 248.162 271.374C247.729 271.306 247.044 271.283 246.154 271.283H243.963V273.839H246.154H246.131Z" fill="#7D7D7D"/>
<path d="M263.819 279.842C263.614 279.226 263.34 278.45 262.998 277.537H257.908L257.109 279.842H253.115L257.589 268.088H263.454L267.951 279.842H263.819ZM262.108 275.003C261.697 273.862 261.286 272.744 260.852 271.603L260.464 270.553C260.099 271.534 259.551 273.018 258.821 275.003H262.085H262.108Z" fill="#7D7D7D"/>
<path d="M282.078 274.386C281.621 275.026 280.845 275.505 279.75 275.802C279.887 275.984 279.978 276.098 280.024 276.212L282.603 279.864H278.266C277.787 278.974 277.057 277.719 276.052 276.098H273.701V279.864H269.936C270.027 277.764 270.073 275.802 270.073 273.998C270.073 272.195 270.027 270.21 269.936 268.133H273.701H276.965C279.111 268.133 280.617 268.475 281.461 269.183C282.306 269.89 282.74 270.826 282.74 272.036C282.74 272.971 282.511 273.77 282.055 274.409L282.078 274.386ZM273.701 271.214V273.063H275.847C276.76 273.063 277.445 273.04 277.901 272.971C278.357 272.903 278.677 272.812 278.86 272.698C279.042 272.583 279.133 272.378 279.133 272.127C279.133 271.876 279.042 271.716 278.882 271.579C278.723 271.442 278.403 271.351 277.924 271.305C277.467 271.26 276.76 271.214 275.847 271.214H273.701Z" fill="#7D7D7D"/>
<path d="M298.077 271.489C296.411 271.443 294.79 271.397 293.216 271.397V279.842H289.221V271.397C287.647 271.397 286.026 271.443 284.383 271.489V268.088H298.077V271.489Z" fill="#7D7D7D"/>
<path d="M314.717 268.088L314.42 268.567C313.279 270.37 312.298 271.945 311.499 273.314C310.7 274.684 310.015 275.962 309.467 277.103V279.842H305.314V276.829C304.926 276.031 304.446 275.186 303.921 274.319C303.396 273.451 302.643 272.287 301.662 270.781C300.886 269.64 300.315 268.727 299.904 268.088H304.378C304.697 268.75 305.222 269.731 305.93 271.009C306.66 272.333 307.139 273.246 307.413 273.794C307.778 273.018 308.281 272.036 308.92 270.895C309.65 269.549 310.152 268.613 310.403 268.088H314.74H314.717Z" fill="#7D7D7D"/>
</svg>
