<svg width="106" height="105" viewBox="0 0 106 105" fill="none" xmlns="http://www.w3.org/2000/svg">
<circle cx="52.9948" cy="52.196" r="52.196" fill="#FF892E"/>
<path d="M39.0777 46.9281C39.0577 49.9081 39.9677 52.2481 41.8077 53.9481C43.6477 55.6481 46.4677 56.8781 50.2677 57.6381C49.7077 58.5381 49.2177 59.4681 48.7977 60.4281C48.3777 61.3881 47.9077 62.5781 47.3877 63.9981C47.2677 64.2781 47.1077 64.6981 46.9077 65.2581C44.5077 64.6381 42.2677 63.5681 40.1877 62.0481C38.1077 60.5081 36.4477 58.5781 35.2077 56.2581C33.9477 58.5581 32.2677 60.4781 30.1677 62.0181C28.0877 63.5581 25.8677 64.6381 23.5077 65.2581C23.3077 64.6981 23.1477 64.2781 23.0277 63.9981C22.5077 62.5781 22.0377 61.3881 21.6177 60.4281C21.1977 59.4681 20.7077 58.5381 20.1477 57.6381C23.9277 56.8981 26.7277 55.6781 28.5477 53.9781C30.3677 52.2781 31.2877 49.9281 31.3077 46.9281L31.3377 41.5581L39.1077 41.6181L39.0777 46.9281ZM84.6177 46.5081H81.4077V47.0181H84.4077V52.3581H78.4377L78.7677 52.4181L78.4977 52.8081H84.1377V55.7781H79.6377V56.2881H83.8377V58.3881H79.6377V58.8381H83.8377V60.9381H79.6377V61.3581H84.1377V64.7181H71.1177V64.9281H65.7777V60.1281L64.8177 60.9381L64.2477 58.1481L64.2177 58.2081L64.0377 57.3381L63.7977 56.1981V64.9881H57.9777V59.2281C57.6177 60.6481 57.1377 61.8881 56.5377 62.9481C56.3177 59.8481 55.8777 57.1581 55.2177 54.8781C56.2977 54.0581 57.2177 52.7581 57.9777 50.9781V50.5281H56.2377V44.5881H57.9777V41.9481H63.7977V44.5881H64.8177V42.6981H67.6077V41.9481H73.7277V42.6981H75.2277V41.9481H81.4077V42.6981H84.6177V46.5081ZM63.7977 50.7081C64.1177 51.0481 64.4277 51.4181 64.7277 51.8181C65.4677 52.6781 65.8777 53.1481 65.9577 53.2281L65.7477 53.8281C66.0877 53.3681 66.3977 52.8781 66.6777 52.3581H65.3277V47.0181H67.6077V46.5081H64.9077V50.5281H63.7977V50.7081ZM75.3177 51.7881V47.1981H75.2277V46.5081H73.7277V47.0181H74.7777V51.6981L75.3177 51.7881ZM69.4377 49.2381V50.1081H70.5777V49.2381H69.4377ZM79.2477 50.1081H80.4477V49.2381H79.2477V50.1081ZM71.3277 52.8081H73.1277L73.3977 52.3581H71.5077L71.3277 52.8081ZM71.1177 56.2881H74.1177V55.7781H71.1177V56.2881ZM71.1177 58.8381H74.1177V58.3881H71.1177V58.8381ZM71.1177 61.3581H74.1177V60.9381H71.1177V61.3581Z" fill="white"/>
</svg>
