<svg width="106" height="105" viewBox="0 0 106 105" fill="none" xmlns="http://www.w3.org/2000/svg">
<circle cx="52.9948" cy="52.196" r="52.196" fill="#FF892E"/>
<path d="M49.8477 63.9081C48.9677 63.9081 47.7977 64.0181 46.3377 64.2381C44.8977 64.4581 43.8077 64.7181 43.0677 65.0181L42.4677 62.8581C37.5477 63.6981 33.1677 64.3181 29.3277 64.7181V63.8181C29.3277 61.8181 29.1977 60.0981 28.9377 58.6581L27.3477 64.8981L26.6577 64.7781C23.9377 64.2181 21.7577 63.8281 20.1177 63.6081C20.6777 62.2881 21.1477 61.0281 21.5277 59.8281C21.9277 58.6281 22.3577 57.2181 22.8177 55.5981C22.9577 54.9981 23.1577 54.2881 23.4177 53.4681L25.8177 53.7981C24.3977 53.1381 22.5977 52.5681 20.4177 52.0881L23.8077 47.4981C25.0477 47.7981 26.6177 48.3281 28.5177 49.0881L29.2977 49.3881V49.2681H36.0477V48.4281H29.9577V45.1581L28.0677 48.3081C25.6477 47.3481 23.0877 46.6481 20.3877 46.2081L23.4477 41.4081C24.3677 41.6081 25.8677 42.0481 27.9477 42.7281L29.9577 43.3881V42.8781H36.0477V41.7381H42.5277V42.8781H49.1277V48.4281H42.5277V49.2681H49.7277V54.8181H39.2277L38.6577 57.8481L41.2677 57.6681L40.8177 55.6281H47.1477C47.4277 56.5681 47.8477 57.8581 48.4077 59.4981C49.0277 61.1981 49.5077 62.6681 49.8477 63.9081ZM29.2977 51.1581L27.2577 53.9781L29.2977 54.2781V51.1581ZM28.9677 58.5381C30.1877 58.4581 31.1277 58.3881 31.7877 58.3281L32.4177 54.8181H29.8977L28.9677 58.5381ZM84.7077 47.7081C84.0477 48.6881 83.2577 50.3881 82.3377 52.8081H83.5677V64.8081H77.0277V64.3581H71.8977V64.8081H65.3577V54.6981L62.6877 64.8981C62.2677 64.8181 61.9777 64.7681 61.8177 64.7481C59.4177 64.2481 57.2177 63.8681 55.2177 63.6081C55.7577 62.3481 56.2177 61.1481 56.5977 60.0081C56.9977 58.8481 57.4277 57.4881 57.8877 55.9281C58.1677 54.9481 58.4177 54.1281 58.6377 53.4681L61.0977 53.7981C59.6777 53.1381 57.8177 52.5681 55.5177 52.0881L59.0277 47.4981C59.8277 47.6781 60.5677 47.8881 61.2477 48.1281C61.9477 48.3681 62.9477 48.7281 64.2477 49.2081L63.9177 47.4981L63.4077 48.3081C60.9677 47.3481 58.3377 46.6481 55.5177 46.2081L58.6677 41.4081C59.6077 41.6081 61.1577 42.0481 63.3177 42.7281C64.4977 43.1081 65.4977 43.4181 66.3177 43.6581L64.2777 46.8981L66.4977 46.8081L68.8677 41.6781L75.3477 42.1881L75.0477 42.8781L79.6977 41.7381C81.3177 44.4781 82.9877 46.4681 84.7077 47.7081ZM73.4577 46.4781L75.8877 46.3581C75.3877 45.5781 74.9377 44.7981 74.5377 44.0181L73.4577 46.4781ZM62.5677 53.9781L65.3577 54.3681V52.8081H80.5377C79.8577 51.9081 79.4877 51.4181 79.4277 51.3381L64.6677 52.6581L64.5477 51.3981L62.5677 53.9781ZM71.8977 57.8481V59.2281H77.0277V57.8481H71.8977Z" fill="white"/>
</svg>
