<svg width="106" height="105" viewBox="0 0 106 105" fill="none" xmlns="http://www.w3.org/2000/svg">
<circle cx="52.9948" cy="52.196" r="52.196" fill="#FF892E"/>
<path d="M39.4377 41.7681L39.1077 42.8481H48.8577V64.7181H41.3577V64.3881H29.3577V64.7181H21.8577V42.8481H31.5477L31.8777 41.7681H39.4377ZM41.3577 48.5181V47.4981H29.3577V48.5181H41.3577ZM41.3577 53.8881V52.8381H29.3577V53.8881H41.3577ZM29.3577 58.2081V59.2581H41.3577V58.2081H29.3577ZM73.6377 41.7381V43.6881H84.0777V64.9581H76.8777V64.5081H63.7377V64.9581H56.5377V43.6881H66.9777V41.7381H73.6377ZM66.9777 49.0581H63.7377V51.3381H66.9777V49.0581ZM73.6377 49.0581V51.3381H76.8777V49.0581H73.6377ZM66.9777 56.4981H63.7377V58.8081H66.9777V56.4981ZM73.6377 58.8081H76.8777V56.4981H73.6377V58.8081Z" fill="white"/>
</svg>
