<svg width="105" height="105" viewBox="0 0 105 105" fill="none" xmlns="http://www.w3.org/2000/svg">
<circle cx="52.4519" cy="52.4382" r="52.196" fill="#FF892E"/>
<path d="M48.1347 57.1903C48.3747 58.4103 48.5447 59.4403 48.6447 60.2803C48.7447 61.1203 48.7947 61.9603 48.7947 62.8003C48.7947 63.6803 48.4447 64.3003 47.7447 64.6603C47.0647 65.0203 46.1847 65.2003 45.1047 65.2003C41.7847 65.2003 39.1347 63.9803 37.1547 61.5403L37.3647 63.5203C33.5247 64.0603 28.0447 64.6503 20.9247 65.2903L20.8047 64.2703C20.6647 63.0903 20.5347 62.1303 20.4147 61.3903C20.3147 60.6303 20.1747 59.9303 19.9947 59.2903L21.7647 59.2603V42.6703H46.9347V51.9703H38.1747L38.4147 52.6903L47.8947 52.0303L48.3447 56.3203L43.4847 56.6803C44.7047 57.0403 45.9847 57.2203 47.3247 57.2203C47.7047 57.2203 47.9747 57.2103 48.1347 57.1903ZM40.4547 48.3103V47.5303H29.1147V48.3103H40.4547ZM32.0247 53.1403C31.9047 52.8603 31.7747 52.4703 31.6347 51.9703H29.1147V53.3503L32.0247 53.1403ZM42.8847 58.7803C42.9447 58.8403 42.9547 58.7503 42.9147 58.5103C42.8947 58.2703 42.8447 57.9603 42.7647 57.5803L42.6147 56.7403L40.7247 56.8603C41.1047 57.3003 41.5347 57.7103 42.0147 58.0903C42.4947 58.4703 42.7847 58.7003 42.8847 58.7803ZM29.1147 57.7003V58.8703C31.2947 58.6703 33.1947 58.4503 34.8147 58.2103L34.1847 57.3403L29.1147 57.7003ZM73.5147 59.2303H83.4747V64.8103H56.0547V59.2303H66.0147V57.6703H56.5347V51.9403H66.0147V50.3803H56.1747V44.5303H65.9847C65.0847 44.1703 64.1847 43.8403 63.2847 43.5403L68.5347 40.4503C69.6147 40.8103 70.6847 41.2303 71.7447 41.7103C72.8047 42.1703 74.2047 42.8003 75.9447 43.6003L74.3247 44.5303H83.3547V50.3803H73.5147V51.9403H82.9947V57.6703H73.5147V59.2303Z" fill="white"/>
</svg>
