<svg width="28" height="26" viewBox="0 0 28 26" fill="none" xmlns="http://www.w3.org/2000/svg">
<path d="M25.6725 15.5273L27.9705 5.37104C28.1364 4.63774 27.5815 3.93945 26.8329 3.93945H7.73928L7.29371 1.75146C7.18268 1.2061 6.70493 0.814453 6.15072 0.814453H1.16667C0.522327 0.814453 0 1.33911 0 1.98633V2.76758C0 3.41479 0.522327 3.93945 1.16667 3.93945H4.56376L7.97859 20.7087C7.16163 21.1807 6.61111 22.0655 6.61111 23.0801C6.61111 24.5902 7.82989 25.8145 9.33334 25.8145C10.8368 25.8145 12.0556 24.5902 12.0556 23.0801C12.0556 22.3147 11.7422 21.6233 11.2377 21.127H21.4289C20.9245 21.6233 20.6111 22.3147 20.6111 23.0801C20.6111 24.5902 21.8299 25.8145 23.3333 25.8145C24.8368 25.8145 26.0556 24.5902 26.0556 23.0801C26.0556 21.9975 25.4291 21.0619 24.5205 20.6189L24.7887 19.4335C24.9546 18.7002 24.3997 18.002 23.651 18.002H10.6029L10.2848 16.4395H24.5349C25.0796 16.4395 25.5518 16.0608 25.6725 15.5273Z" fill="#FF892E"/>
</svg>
