<svg width="130" height="130" viewBox="0 0 130 130" fill="none" xmlns="http://www.w3.org/2000/svg">
<circle cx="65" cy="65" r="65" fill="#FF892E"/>
<rect x="30" y="88.8506" width="69.4169" height="6.82789" rx="3.41395" fill="white"/>
<circle cx="80.437" cy="43.9819" r="8.98193" fill="white"/>
<ellipse cx="81.4938" cy="66.1724" rx="11.0953" ry="10.0386" fill="white"/>
<rect x="70.3984" y="65.644" width="22.1907" height="19.0206" fill="white"/>
<path d="M55.7481 63.0874H36.2822C33.8471 63.0874 32.1562 65.5124 32.998 67.7974L38.9212 83.8746C39.4281 85.2506 40.739 86.1647 42.2054 86.1647H73.6819C75.6148 86.1647 77.1819 84.5977 77.1819 82.6647V80.8528C77.1819 78.9198 75.6148 77.3528 73.6819 77.3528H63.3863C63.1711 77.3528 62.98 77.2151 62.912 77.0109L59.0685 65.4806C58.5921 64.0514 57.2546 63.0874 55.7481 63.0874Z" fill="white" stroke="#FF892E" stroke-width="3"/>
</svg>
