<svg width="130" height="130" viewBox="0 0 130 130" fill="none" xmlns="http://www.w3.org/2000/svg">
<circle cx="65" cy="65" r="65" fill="#FF892E"/>
<g clip-path="url(#clip0_1674_12728)">
<path d="M44.587 39.105V93.9536H86.504V39.105H80.1311V44.5461C80.1311 45.6217 79.253 46.496 78.1702 46.496H53.1341C52.0538 46.496 51.1757 45.6217 51.1757 44.5461V39.105H44.587ZM68.8822 74.8419H49.826V71.876H68.8822V74.8419ZM81.7203 85.754H77.8334V89.6265H74.4668V85.754H70.5774V82.4019H74.4668V78.5318H77.8334V82.4019H81.7203V85.754ZM81.7203 68.0097H49.826V65.0439H81.719V68.0097H81.7203ZM81.7203 61.1788H49.826V58.2129H81.719V61.1788H81.7203ZM81.7203 51.3795V54.3454H49.826V51.3795H81.719H81.7203Z" fill="#FF892E"/>
<path d="M78.1715 31H53.1341C52.0538 31 51.1757 31.8731 51.1757 32.9512V34.4415H40.9821C39.8894 34.4415 39 35.3246 39 36.4151V97.0265C39 98.1157 39.8894 99 40.9821 99H89.9043C90.9995 99 91.8889 98.1145 91.8889 97.0265V36.4151C91.8889 35.3234 90.9995 34.4415 89.9043 34.4415H80.1323V32.9512C80.1323 31.8731 79.2542 31 78.1715 31ZM55.0949 36.8361H76.2131V42.5939H55.0949V36.8361ZM86.504 39.1052V93.9538H44.587V39.1052H51.1769V44.5463C51.1769 45.6219 52.0538 46.4963 53.1353 46.4963H78.1715C79.2542 46.4963 80.1323 45.6219 80.1323 44.5463V39.1052H86.5052H86.504Z" fill="white"/>
<path d="M81.719 51.3799H49.826V54.3457H81.719V51.3799Z" fill="white"/>
<path d="M81.719 58.2134H49.826V61.1792H81.719V58.2134Z" fill="white"/>
<path d="M81.719 65.0439H49.826V68.0098H81.719V65.0439Z" fill="white"/>
<path d="M68.881 71.8765H49.826V74.8423H68.881V71.8765Z" fill="white"/>
<path d="M74.4667 78.5322V82.4023H70.5762V85.7544H74.4667V89.6269H77.8322V85.7544H81.7203V82.4023H77.8322V78.5322H74.4667Z" fill="white"/>
<path d="M76.213 36.8359H55.0949V42.5938H76.213V36.8359Z" fill="#FF892E"/>
</g>
<defs>
<clipPath id="clip0_1674_12728">
<rect width="52.8889" height="68" fill="white" transform="translate(39 31)"/>
</clipPath>
</defs>
</svg>
