<svg width="105" height="105" viewBox="0 0 105 105" fill="none" xmlns="http://www.w3.org/2000/svg">
<circle cx="52.196" cy="52.2277" r="52.196" fill="#FF892E"/>
<path d="M20.5789 49.4498C23.3989 49.4498 25.6889 49.3298 27.4489 49.0898L26.9389 48.4898C25.4789 48.8298 23.8689 49.0798 22.1089 49.2398C21.9889 48.4798 21.7989 47.7098 21.5389 46.9298C21.2989 46.1498 20.9489 45.1598 20.4889 43.9598C23.1289 43.9598 25.3589 43.7998 27.1789 43.4798C29.0189 43.1398 30.7389 42.6098 32.3389 41.8898H40.2589C39.9389 42.1698 39.5989 42.4498 39.2389 42.7298H43.9189L44.6089 46.3598C43.8689 46.9998 42.8289 47.6898 41.4889 48.4298C40.1689 49.1498 39.1289 49.6898 38.3689 50.0498C36.0489 51.1298 33.5489 52.0098 30.8689 52.6898C28.1889 53.3498 25.1189 53.8998 21.6589 54.3398C21.1989 52.9798 20.4989 51.3498 19.5589 49.4498H20.5789ZM31.7989 46.9898C32.0989 47.2698 32.4489 47.5398 32.8489 47.7998C33.8489 47.4398 34.7589 47.0098 35.5789 46.5098H32.9689C32.6889 46.6498 32.2989 46.8098 31.7989 46.9898ZM47.6089 50.9798L49.2589 56.1698C47.2189 58.1298 44.8689 59.7998 42.2089 61.1798C39.6289 62.4998 36.7489 63.4298 33.5689 63.9698C30.4089 64.4898 26.6889 64.7998 22.4089 64.8998C21.9889 62.6798 21.2489 60.6298 20.1889 58.7498C21.4289 58.8898 22.8389 58.9998 24.4189 59.0798C23.9789 58.3198 23.5089 57.6298 23.0089 57.0098C22.5289 56.3698 21.9289 55.7298 21.2089 55.0898C25.5289 54.6098 29.5489 53.7898 33.2689 52.6298C37.0089 51.4698 40.1189 50.0798 42.5989 48.4598L46.8289 49.4798C46.6089 49.6798 46.0289 50.1798 45.0889 50.9798H47.6089ZM38.6989 55.1498L37.5589 55.7198C37.9189 56.0998 38.2989 56.4498 38.6989 56.7698C39.6189 56.4098 40.5389 55.8698 41.4589 55.1498H38.6989ZM33.2989 58.3598C33.0789 58.1398 32.8789 57.9098 32.6989 57.6698C30.9389 58.2498 29.2589 58.7198 27.6589 59.0798C29.6189 58.9998 31.4989 58.7598 33.2989 58.3598ZM57.2989 42.2798H82.1389V47.2598H57.2989V42.2798ZM83.2789 56.2598C83.2789 58.3998 83.2489 59.9098 83.1889 60.7898C83.1289 61.6498 82.9889 62.3298 82.7689 62.8298C82.4289 63.5898 81.9389 64.0798 81.2989 64.2998C80.6789 64.5198 79.9389 64.6298 79.0789 64.6298H73.1989C71.9789 64.6298 71.0989 64.3898 70.5589 63.9098C70.0189 63.4298 69.7489 62.6598 69.7489 61.5998V53.7398H65.2789L69.4489 54.8198C68.6289 56.9798 67.4189 58.9198 65.8189 60.6398C64.2389 62.3598 62.3389 63.7898 60.1189 64.9298C59.1789 63.9298 58.2889 63.0598 57.4489 62.3198C56.6289 61.5598 55.6089 60.7498 54.3889 59.8898C56.1689 59.2498 57.5789 58.6398 58.6189 58.0598C59.6589 57.4798 60.4889 56.8598 61.1089 56.1998C61.7289 55.5398 62.2889 54.7198 62.7889 53.7398H55.7389V48.3698H83.2489V53.7398H76.1689V58.7498C76.1689 58.8498 76.2189 58.9198 76.3189 58.9598C76.4189 58.9798 76.5889 58.9898 76.8289 58.9898C77.2089 58.9898 77.3989 58.7898 77.3989 58.3898C77.3989 57.0098 77.3389 55.5598 77.2189 54.0398C78.6989 54.4198 80.7189 54.6998 83.2789 54.8798V56.2598Z" fill="white"/>
</svg>
