<svg width="114" height="113" viewBox="0 0 114 113" fill="none" xmlns="http://www.w3.org/2000/svg">
<g filter="url(#filter0_d_1885_6464)">
<circle cx="56.9948" cy="52.196" r="52.196" fill="#FF892E"/>
<path d="M52.739 27.1327V45.5527C52.739 46.7727 52.589 47.6527 52.289 48.1927C52.009 48.7327 51.439 49.1027 50.579 49.3027C49.719 49.4827 48.319 49.5627 46.379 49.5427C46.339 48.0027 46.199 46.5927 45.959 45.3127V48.3427H42.899V47.7727H42.539V49.5127H39.239V43.4227H42.539V45.2827H42.899V43.4227H45.959V43.8127C46.319 43.7927 46.529 43.7227 46.589 43.6027C46.649 43.4627 46.679 43.1527 46.679 42.6727V36.4327H44.219L46.229 37.0927L44.909 39.0127L45.779 38.9227C45.819 39.6027 45.899 40.3827 46.019 41.2627C46.039 41.6027 46.069 41.9327 46.109 42.2527C46.149 42.5527 46.179 42.8427 46.199 43.1227L44.459 43.3327C44.459 43.2527 44.439 43.1127 44.399 42.9127C42.159 43.1327 40.399 43.2327 39.119 43.2127V40.8427L40.439 40.9327C39.939 40.5127 39.329 40.0427 38.609 39.5227C38.809 41.4227 38.929 42.6227 38.969 43.1227L37.349 43.3327L37.289 42.9127C34.929 43.1327 33.059 43.2327 31.679 43.2127L31.709 40.8427L33.389 40.9327L32.339 40.0927L31.679 39.5827L32.879 37.3927L33.239 37.6627L33.809 36.4327H31.169V49.4827H25.079V27.1327H38.609V36.4327H37.109L39.119 37.0927L37.829 39.0127L38.459 38.9227L39.479 37.0327L40.349 37.6627C40.609 37.0427 40.799 36.6327 40.919 36.4327H39.179V27.1327H52.739ZM33.569 30.1627H31.169V30.6727H33.569V30.1627ZM44.189 30.1627V30.6727H46.679V30.1627H44.189ZM33.569 32.9227H31.169V33.4627H33.569V32.9227ZM44.189 33.4627H46.679V32.9227H44.189V33.4627ZM34.709 36.4327L36.329 36.7927C35.629 37.9127 35.169 38.6227 34.949 38.9227L35.249 39.1927C35.869 38.2527 36.449 37.3327 36.989 36.4327H34.709ZM42.329 39.2227C43.029 38.1627 43.619 37.2327 44.099 36.4327H41.819L43.409 36.7927C42.809 37.7927 42.349 38.5227 42.029 38.9827L42.329 39.2227ZM36.509 40.9327C36.769 40.9327 36.959 40.9227 37.079 40.9027C37.039 40.5827 37.019 40.3527 37.019 40.2127L36.509 40.9327ZM44.099 40.2127C43.899 40.5327 43.739 40.7727 43.619 40.9327C43.879 40.9327 44.069 40.9227 44.189 40.9027L44.099 40.2127ZM35.489 45.2827V43.4227H38.789V46.0027C38.789 47.0227 38.579 47.8327 38.159 48.4327C37.759 49.0327 36.929 49.5627 35.669 50.0227C34.009 49.2427 32.759 48.7627 31.919 48.5827C33.679 48.2827 34.759 48.0127 35.159 47.7727H31.829V43.4227H35.129V45.2827H35.489ZM68.729 31.8127H75.359V31.3327H68.219V27.4327H75.359V26.6227H81.209V27.4327H88.289V31.3327H81.209V31.8127H87.749V36.6127H68.729V31.8127ZM89.309 45.3727C88.969 45.8327 88.649 46.3927 88.349 47.0527C88.069 47.7127 87.759 48.4927 87.419 49.3927L87.179 50.0227C85.139 49.5027 83.089 48.5027 81.029 47.0227V48.1927C79.529 48.6527 77.889 48.9827 76.109 49.1827C74.329 49.3827 71.669 49.5627 68.129 49.7227C67.949 48.4027 67.649 47.2927 67.229 46.3927V49.8727H61.349V43.6627L59.279 43.3327C59.759 40.5327 59.999 36.9127 59.999 32.4727V31.3027L61.349 31.4227V27.0427H67.229V34.0627C67.529 34.9827 67.829 36.0127 68.129 37.1527H75.089V39.3427H68.549L68.579 39.5527L67.229 39.8527V46.0027C68.849 45.9827 70.309 45.9227 71.609 45.8227V45.1327C70.869 45.2527 69.919 45.3827 68.759 45.5227C68.479 44.6027 67.979 43.6027 67.259 42.5227C70.359 42.5227 72.859 42.3327 74.759 41.9527H67.979V39.7627H75.089V41.8927L75.569 41.7727V36.9727H80.369V40.9327L80.579 40.9027L80.879 41.2927V39.7627H87.989V41.9527H84.929L87.929 43.0327C87.489 43.3727 87.019 43.6827 86.519 43.9627C86.039 44.2427 85.739 44.4227 85.619 44.5027C86.539 44.8027 87.769 45.0927 89.309 45.3727ZM74.429 33.9427H73.169V34.5127H74.429V33.9427ZM79.079 34.5127V33.9427H77.819V34.5127H79.079ZM82.349 34.5127H83.579V33.9427H82.349V34.5127ZM87.989 39.3427H80.879V37.1527H87.989V39.3427ZM81.449 41.9527C81.889 42.3927 82.229 42.7027 82.469 42.8827C82.749 42.6827 83.119 42.3727 83.579 41.9527H81.449ZM76.949 45.2827L78.629 45.0127C78.249 44.6527 77.859 44.2427 77.459 43.7827L76.949 43.9627V45.2827ZM53.069 64.8727C53.069 67.7727 53.049 70.0627 53.009 71.7427C52.989 73.4227 52.909 74.7927 52.769 75.8527C52.609 77.1127 52.209 78.0227 51.569 78.5827C50.929 79.1427 49.909 79.5127 48.509 79.6927C47.129 79.8527 44.919 79.9327 41.879 79.9327C41.839 79.8127 41.739 79.4527 41.579 78.8527C41.439 78.2327 41.209 77.6327 40.889 77.0527C40.589 76.4727 40.219 75.9527 39.779 75.4927L39.329 75.5827L38.669 73.7827C38.649 74.4027 38.599 75.0927 38.519 75.8527C38.399 77.0727 38.009 77.9727 37.349 78.5527C36.709 79.1127 35.669 79.4827 34.229 79.6627C32.809 79.8427 30.609 79.9327 27.629 79.9327C27.589 79.8127 27.489 79.4527 27.329 78.8527C27.189 78.2327 26.959 77.6427 26.639 77.0827C26.339 76.5027 25.969 75.9827 25.529 75.5227C25.429 75.5227 25.279 75.5427 25.079 75.5827L23.789 72.0427C25.909 71.8827 27.549 71.6927 28.709 71.4727C28.369 71.4527 27.929 71.4027 27.389 71.3227C26.589 71.2227 25.869 71.1627 25.229 71.1427L25.739 68.9527C28.519 69.2727 30.449 69.5227 31.529 69.7027L31.169 70.9027C31.349 70.8627 31.619 70.7827 31.979 70.6627L32.729 72.9727C31.809 73.4727 31.029 73.8727 30.389 74.1727C29.769 74.4527 29.039 74.7027 28.199 74.9227C29.579 74.8827 30.579 74.8127 31.199 74.7127C31.819 74.6127 32.219 74.4827 32.399 74.3227C32.579 74.1427 32.699 73.8727 32.759 73.5127C32.959 72.2527 33.059 70.5227 33.059 68.3227H31.049L30.959 68.9227L25.109 68.6227L25.979 61.6327H32.999V61.0627H25.259V57.1927H38.729V64.2727H31.769L31.679 64.8727H38.849C38.849 67.5127 38.819 69.8827 38.759 71.9827C40.419 71.8627 41.829 71.6927 42.989 71.4727C42.629 71.4527 42.179 71.4027 41.639 71.3227C40.859 71.2227 40.129 71.1627 39.449 71.1427L39.989 68.9527C42.769 69.2727 44.699 69.5227 45.779 69.7027L45.419 70.9027C45.599 70.8627 45.869 70.7827 46.229 70.6627L46.979 72.9727C46.139 73.4327 45.379 73.8127 44.699 74.1127C44.019 74.4127 43.239 74.6827 42.359 74.9227C43.759 74.8827 44.769 74.8127 45.389 74.7127C46.029 74.6127 46.439 74.4827 46.619 74.3227C46.799 74.1427 46.919 73.8727 46.979 73.5127C47.179 72.2527 47.279 70.5227 47.279 68.3227H45.299L45.209 68.9227L39.359 68.6227L40.199 61.6327H47.219V61.0627H39.479V57.1927H52.979V64.2727H45.929L45.839 64.8727H53.069ZM86.789 62.8927C87.189 63.6527 87.529 64.2127 87.809 64.5727C88.089 64.9327 88.429 65.2427 88.829 65.5027L88.679 66.5227C88.519 68.0027 88.349 69.1827 88.169 70.0627C88.049 70.7027 87.749 71.1127 87.269 71.2927C86.789 71.4527 86.149 71.5327 85.349 71.5327C85.289 71.5327 85.189 71.5327 85.049 71.5327C84.929 71.5127 84.719 71.5027 84.419 71.5027C83.399 71.4627 82.659 71.2727 82.199 70.9327C81.739 70.5727 81.509 70.0227 81.509 69.2827C81.509 69.1427 81.529 68.8927 81.569 68.5327L81.629 68.2027L80.219 70.6027L79.319 69.5827C78.659 70.2427 77.889 70.8027 77.009 71.2627C76.969 71.5827 76.949 71.8027 76.949 71.9227H87.629V75.1627V76.4527C87.629 77.2327 87.319 77.8327 86.699 78.2527C86.079 78.6727 84.899 78.9827 83.159 79.1827C81.439 79.3627 78.889 79.4527 75.509 79.4527C75.309 78.2727 74.899 77.2927 74.279 76.5127C74.239 76.5327 73.989 76.7027 73.529 77.0227C72.689 77.5627 71.669 78.0027 70.469 78.3427C69.289 78.6827 67.699 79.0627 65.699 79.4827L63.659 79.9327L63.329 79.3627C62.869 78.6227 62.429 78.0027 62.009 77.5027C61.609 77.0027 60.959 76.3827 60.059 75.6427C61.179 75.6827 61.999 75.7027 62.519 75.7027C65.059 75.7027 67.109 75.5227 68.669 75.1627H60.299V71.9227H70.619L70.649 71.3227C68.429 71.3627 65.019 71.3827 60.419 71.3827C60.299 70.2427 60.099 69.3427 59.819 68.6827H65.069V68.2327H60.599V66.0727H62.039C61.199 65.2127 60.329 64.5127 59.429 63.9727C61.369 63.4527 62.839 62.8927 63.839 62.2927H60.059V59.9827H65.159V59.6227H60.809V57.3727H65.159V56.6827H70.199V57.3727H74.639V59.6227H70.199V59.9827H75.149V62.2927H72.089V63.0727C72.089 63.1527 72.099 63.2027 72.119 63.2227C72.159 63.2427 72.269 63.2527 72.449 63.2527C72.529 63.2527 72.589 63.2527 72.629 63.2527C72.669 63.2327 72.689 63.2027 72.689 63.1627L72.659 62.3527C72.859 62.3927 73.229 62.4827 73.769 62.6227C74.309 62.7627 74.819 62.8527 75.299 62.8927C75.299 63.3927 75.269 63.8127 75.209 64.1527L76.349 62.3527H75.629V57.9427H78.179C78.199 57.6827 78.209 57.2627 78.209 56.6827H82.199L82.169 57.9427H87.029L85.919 67.0927V67.2127C85.919 67.3727 85.979 67.4527 86.099 67.4527C86.259 67.4527 86.349 67.3627 86.369 67.1827C86.449 66.6427 86.589 65.2127 86.789 62.8927ZM68.009 63.1327V62.2927H66.359L68.009 63.1327ZM76.559 62.3527L77.879 63.1927L77.969 62.3527H76.559ZM82.499 62.3527H81.959C81.819 63.8327 81.639 64.9827 81.419 65.8027C81.439 65.8227 81.609 65.9627 81.929 66.2227L82.499 62.3527ZM68.339 65.3527C68.119 65.2127 68.009 64.9827 68.009 64.6627V63.5827C67.329 64.2027 66.419 64.7927 65.279 65.3527H68.339ZM65.069 66.0727V65.4427C64.789 65.5827 64.329 65.7927 63.689 66.0727H65.069ZM70.289 65.6227V66.0727H74.309V67.2427C74.809 67.2027 75.189 67.1527 75.449 67.0927C75.729 67.0127 75.979 66.9027 76.199 66.7627L74.519 65.4727C74.279 65.5927 73.979 65.6527 73.619 65.6527C73.279 65.6327 73.059 65.6227 72.959 65.6227H70.289ZM70.289 68.2327V68.6227C71.809 68.6027 73.319 68.5427 74.819 68.4427C74.699 68.1627 74.529 67.8627 74.309 67.5427V68.2327H70.289ZM75.659 71.1427C75.499 70.4027 75.299 69.7027 75.059 69.0427V71.1427H75.659ZM75.779 75.1627L75.179 75.7927C77.319 75.7927 78.849 75.7727 79.769 75.7327C80.329 75.7127 80.719 75.6627 80.939 75.5827C81.179 75.4827 81.319 75.3427 81.359 75.1627H75.779Z" fill="white"/>
</g>
<defs>
<filter id="filter0_d_1885_6464" x="0.798828" y="0" width="112.392" height="112.392" filterUnits="userSpaceOnUse" color-interpolation-filters="sRGB">
<feFlood flood-opacity="0" result="BackgroundImageFix"/>
<feColorMatrix in="SourceAlpha" type="matrix" values="0 0 0 0 0 0 0 0 0 0 0 0 0 0 0 0 0 0 127 0" result="hardAlpha"/>
<feOffset dy="4"/>
<feGaussianBlur stdDeviation="2"/>
<feComposite in2="hardAlpha" operator="out"/>
<feColorMatrix type="matrix" values="0 0 0 0 0 0 0 0 0 0 0 0 0 0 0 0 0 0 0.25 0"/>
<feBlend mode="normal" in2="BackgroundImageFix" result="effect1_dropShadow_1885_6464"/>
<feBlend mode="normal" in="SourceGraphic" in2="effect1_dropShadow_1885_6464" result="shape"/>
</filter>
</defs>
</svg>
