<svg width="106" height="105" viewBox="0 0 106 105" fill="none" xmlns="http://www.w3.org/2000/svg">
<circle cx="52.9948" cy="52.196" r="52.196" fill="#FF892E"/>
<path d="M44.449 32.2627C37.029 31.5827 29.899 31.1527 23.059 30.9727L25.849 26.7727C33.649 26.9927 40.779 27.4227 47.239 28.0627L44.449 32.2627ZM40.939 39.4627C41.879 40.5027 42.999 41.3427 44.299 41.9827C45.619 42.6027 47.229 43.0327 49.129 43.2727C48.329 44.5927 47.359 46.4927 46.219 48.9727L45.769 49.9627C43.909 49.1627 42.309 47.9627 40.969 46.3627C39.629 44.7427 38.779 43.0127 38.419 41.1727L38.389 40.9927V46.7827C38.389 47.5827 38.269 48.1727 38.029 48.5527C37.809 48.9327 37.339 49.2027 36.619 49.3627C35.899 49.5227 34.759 49.6027 33.199 49.6027C32.279 49.6027 31.139 49.5727 29.779 49.5127L28.819 49.4827C28.599 48.2227 28.409 47.2627 28.249 46.6027C27.089 47.7027 25.419 48.8227 23.239 49.9627C23.079 49.7227 22.769 49.1127 22.309 48.1327C21.849 47.1527 21.429 46.3227 21.049 45.6427C20.669 44.9427 20.219 44.3127 19.699 43.7527C21.239 43.5127 22.469 43.2327 23.389 42.9127C24.329 42.5727 25.089 42.0827 25.669 41.4427L21.109 41.4127V37.0627L31.639 37.0927V36.4327H20.869V32.0827H38.389V33.0427C38.409 33.7227 38.489 34.3927 38.629 35.0527C39.869 34.6727 40.949 34.2527 41.869 33.7927C42.809 33.3127 43.999 32.6527 45.439 31.8127C45.599 31.7327 45.839 31.5927 46.159 31.3927C46.659 32.3127 47.109 33.1027 47.509 33.7627C47.909 34.4227 48.479 35.3027 49.219 36.4027L47.209 37.2727C45.969 37.8327 44.879 38.2927 43.939 38.6527C42.999 38.9927 41.999 39.2627 40.939 39.4627ZM30.409 43.6927C30.929 43.7127 31.259 43.6927 31.399 43.6327C31.559 43.5527 31.639 43.4027 31.639 43.1827V39.1627C31.379 41.0627 30.969 42.5727 30.409 43.6927ZM63.799 39.7927C63.679 39.7927 63.499 39.8127 63.259 39.8527V49.7527H58.879V40.4527C57.819 40.5927 56.699 40.7127 55.519 40.8127C55.519 38.9927 55.429 37.5227 55.249 36.4027L57.079 36.3427C57.439 35.9027 57.699 35.5727 57.859 35.3527C57.439 34.8327 56.969 34.2927 56.449 33.7327C55.929 33.1727 55.479 32.7227 55.099 32.3827L56.809 28.2727L57.439 28.9027C57.859 28.2027 58.299 27.2927 58.759 26.1727L62.689 27.2527L61.789 28.6927C60.829 30.2327 60.219 31.1927 59.959 31.5727L60.319 31.9927C61.459 30.2527 62.529 28.4327 63.529 26.5327L66.529 27.5527V27.4327H72.619V26.8027H78.019V27.4327H84.079V29.8927H78.019V30.2527H83.359V32.9227H67.219V30.2527H72.619V29.8927H66.529V29.5027L65.899 30.4627L64.669 32.3827L65.779 32.2027C66.019 33.7427 66.209 34.8727 66.349 35.5927L66.529 36.5827V33.2827H84.289V38.3827H66.829L67.009 39.9127L63.859 40.3927L63.799 39.7927ZM62.629 35.4127L62.089 36.1927L63.289 36.1327C63.229 35.7927 63.159 35.3327 63.079 34.7527L62.629 35.4127ZM72.139 35.6527H70.489V36.1327H72.139V35.6527ZM74.539 35.6527V36.1327H76.219V35.6527H74.539ZM78.589 36.1327H80.239V35.6527H78.589V36.1327ZM85.129 47.4427C84.449 48.1627 83.659 49.1027 82.759 50.2627C79.639 49.4027 77.189 48.7527 75.409 48.3127C72.569 49.1927 70.099 49.8227 67.999 50.2027C67.479 49.5027 67.019 48.9327 66.619 48.4927L63.919 48.8227C63.839 46.0827 63.799 43.4327 63.799 40.8727L66.379 40.7227C66.379 43.2427 66.479 45.4027 66.679 47.2027C68.479 47.1427 70.289 46.9227 72.109 46.5427H67.069V38.7427H83.629V46.5427H79.339C80.799 46.7427 82.729 47.0427 85.129 47.4427ZM78.319 40.9927V40.6027H72.349V40.9927H78.319ZM55.789 41.1427C56.169 41.1427 56.699 41.1227 57.379 41.0827L58.369 41.0527V42.0727C58.369 43.3927 58.349 44.5627 58.309 45.5827C58.269 46.6027 58.169 47.7427 58.009 49.0027C57.869 48.9827 57.539 48.9427 57.019 48.8827C56.499 48.8027 55.889 48.7627 55.189 48.7627C55.449 47.4427 55.609 46.2527 55.669 45.1927C55.749 44.1127 55.789 42.7627 55.789 41.1427ZM72.349 42.4027V42.8227H78.319V42.4027H72.349ZM78.319 44.2327H72.349V44.6527H78.319V44.2327ZM73.759 46.5427L75.349 47.8327C76.069 47.2127 76.619 46.7827 76.999 46.5427H73.759ZM47.059 65.9227C48.219 67.5627 49.119 68.7627 49.759 69.5227L46.519 70.5427H48.859V74.5327H44.029V75.2527H49.519V79.6627H32.299V78.5227L31.189 78.6427L29.719 78.8227C29.619 76.2427 29.569 73.5927 29.569 70.8727L32.419 70.7227C32.419 72.5227 32.459 74.0327 32.539 75.2527H37.849V74.5327H32.959V70.5427H34.459C33.619 68.8427 33.029 67.6727 32.689 67.0327C32.869 67.9927 32.999 68.9527 33.079 69.9127L29.659 70.3927L29.599 69.7627L29.029 69.8527V79.7527H24.109V70.4527C22.949 70.5927 21.719 70.7127 20.419 70.8127C20.419 69.0127 20.339 67.5427 20.179 66.4027L22.189 66.3427C22.589 65.9027 22.879 65.5727 23.059 65.3527C22.079 64.2527 21.059 63.2627 19.999 62.3827L21.859 58.2727C22.139 58.5127 22.369 58.7227 22.549 58.9027C23.069 58.1227 23.559 57.2127 24.019 56.1727L28.369 57.2527C27.069 59.1727 26.059 60.6127 25.339 61.5727L25.729 61.9927C27.029 60.1927 28.209 58.3727 29.269 56.5327L32.959 57.6727V57.1627H48.859V61.1527H47.869L49.849 61.7227C49.469 62.1827 48.949 62.9627 48.289 64.0627C47.789 64.8827 47.379 65.5027 47.059 65.9227ZM31.759 62.2027L31.909 62.9227C32.129 64.0227 32.279 64.8227 32.359 65.3227C32.739 64.7827 33.119 64.0827 33.499 63.2227C33.599 63.0227 33.749 62.7227 33.949 62.3227C34.149 61.9227 34.359 61.5327 34.579 61.1527H32.959V58.9927L30.499 62.3827L31.759 62.2027ZM36.619 65.9227C37.939 67.6627 38.899 69.0927 39.499 70.2127L37.069 70.5427H40.189C39.629 69.4627 38.939 68.2927 38.119 67.0327L37.369 65.8327C37.789 65.3127 38.139 64.8327 38.419 64.3927C38.699 63.9527 39.049 63.3627 39.469 62.6227C39.869 61.8627 40.139 61.3727 40.279 61.1527H37.399L39.619 61.6327C39.379 61.9527 38.999 62.5127 38.479 63.3127C38.319 63.5327 38.039 63.9427 37.639 64.5427C37.259 65.1227 36.919 65.5827 36.619 65.9227ZM42.499 70.5427H45.319C44.599 69.1427 43.659 67.5727 42.499 65.8327C43.099 65.0927 43.609 64.4127 44.029 63.7927C44.469 63.1527 45.019 62.2727 45.679 61.1527H42.919L44.719 61.5727C44.259 62.2527 43.899 62.7927 43.639 63.1927C42.859 64.4127 42.229 65.3227 41.749 65.9227C43.149 67.8427 44.109 69.2727 44.629 70.2127L42.499 70.5427ZM29.059 66.1327L28.789 64.7227L27.709 66.1927L29.059 66.1327ZM20.779 71.1427C21.159 71.1427 21.729 71.1227 22.489 71.0827L23.629 71.0527C23.629 72.8527 23.609 74.2827 23.569 75.3427C23.529 76.3827 23.399 77.6027 23.179 79.0027C23.019 78.9827 22.649 78.9427 22.069 78.8827C21.509 78.8027 20.849 78.7627 20.089 78.7627C20.389 77.4427 20.579 76.2527 20.659 75.1927C20.739 74.1327 20.779 72.7827 20.779 71.1427ZM84.679 61.3927C84.099 62.0527 83.489 62.8827 82.849 63.8827H84.379V68.9527H82.459V73.0027H73.729L73.369 73.6027H83.269V79.7827H76.219V79.5127H63.799V79.7827H56.749V73.6027H65.509L65.959 73.0027H57.559V68.9527H55.639V63.8827H56.659C56.199 63.2427 55.529 62.4127 54.649 61.3927C56.389 61.4127 57.779 61.2627 58.819 60.9427L55.549 60.3727C56.289 59.3127 56.819 58.2127 57.139 57.0727L60.919 57.8227C60.519 58.8627 60.029 59.8227 59.449 60.7027C60.589 60.1827 61.159 59.4027 61.159 58.3627V56.5927L65.149 56.6227V58.3627C65.149 58.7427 65.209 59.1027 65.329 59.4427C65.669 58.9827 65.999 58.3327 66.319 57.4927L66.559 56.9227L70.279 57.5527C69.859 58.4527 69.209 59.4527 68.329 60.5527L65.719 60.1627C66.399 61.0627 67.689 61.6027 69.589 61.7827L69.199 61.3327C70.599 61.3727 71.719 61.1727 72.559 60.7327L68.899 60.6427C69.639 59.5627 70.169 58.4727 70.489 57.3727L74.179 57.5527V56.5927L78.169 56.6227V58.3627C78.169 58.7627 78.239 59.1027 78.379 59.3827C78.699 58.9627 78.959 58.4927 79.159 57.9727C79.379 57.4327 79.519 57.0827 79.579 56.9227L83.929 57.8227C83.369 58.9227 82.719 59.9327 81.979 60.8527L79.189 60.3127C80.249 61.0727 82.079 61.4327 84.679 61.3927ZM74.179 57.7027C73.759 58.7827 73.229 59.7827 72.589 60.7027C73.089 60.4627 73.479 60.1427 73.759 59.7427C74.039 59.3427 74.179 58.8827 74.179 58.3627V57.7027ZM79.369 63.8827C78.049 63.5627 77.059 63.1127 76.399 62.5327C75.819 63.0927 75.179 63.5427 74.479 63.8827H79.369ZM70.639 63.8827C70.499 63.4627 70.319 63.0427 70.099 62.6227C69.959 62.9027 69.769 63.3227 69.529 63.8827H70.639ZM62.809 62.7727C62.109 63.2327 61.449 63.6027 60.829 63.8827H64.789C63.949 63.5027 63.289 63.1327 62.809 62.7727ZM62.539 67.9027H77.479V67.3027H62.539V67.9027ZM64.729 70.6027H75.289V70.0627H64.729V70.6027ZM63.799 76.5727H76.219V76.0327H63.799V76.5727Z" fill="white"/>
</svg>
