<svg width="114" height="114" viewBox="0 0 114 114" fill="none" xmlns="http://www.w3.org/2000/svg">
<g filter="url(#filter0_d_1885_6452)">
<circle cx="57.1726" cy="52.9909" r="52.196" fill="#FF892E"/>
<path d="M53.1554 43.043V61.013C53.1554 62.453 53.0354 63.453 52.7954 64.013C52.5754 64.553 52.0454 64.923 51.2054 65.123C50.3654 65.323 48.8854 65.413 46.7654 65.393C46.7254 63.973 46.6154 62.683 46.4354 61.523H44.8754V65.273H39.8954V61.523H38.2754C38.1354 62.363 37.9154 63.093 37.6154 63.713L37.2554 64.493C37.0954 64.953 36.8954 65.313 36.6554 65.573C35.7354 65.133 34.8854 64.773 34.1054 64.493C33.3454 64.193 32.5754 63.983 31.7954 63.863V65.423H25.6154V43.043H39.1154V53.393H31.7954V63.443C32.4354 62.983 32.9054 62.483 33.2054 61.943L33.4154 61.523H32.2454V57.893H33.8354V57.233H32.2454V53.873H46.4654V57.233H44.8754V57.893H46.4654V59.423C46.6654 59.403 46.7954 59.323 46.8554 59.183C46.9354 59.043 46.9754 58.773 46.9754 58.373V53.393H39.6854V43.043H53.1554ZM34.1354 46.343H31.7954V46.943H34.1354V46.343ZM44.6354 46.343V46.943H46.9754V46.343H44.6354ZM34.1354 49.883V49.253H31.7954V49.883H34.1354ZM44.6354 49.883H46.9754V49.253H44.6354V49.883ZM39.8954 57.893V57.233H38.5454L38.5154 57.893H39.8954ZM89.4554 59.333C88.7554 60.413 88.2254 61.413 87.8654 62.333C87.5054 63.253 87.1054 64.433 86.6654 65.873C85.1254 64.993 83.7754 64.013 82.6154 62.933C80.9354 64.033 78.5854 65.013 75.5654 65.873C75.3854 64.133 75.0654 62.593 74.6054 61.253C74.5054 62.353 74.2654 63.213 73.8854 63.833C73.5054 64.433 72.9054 64.903 72.0854 65.243C71.2854 65.563 70.1454 65.803 68.6654 65.963C68.3254 64.383 67.7554 62.803 66.9554 61.223C66.6754 62.563 66.2054 64.203 65.5454 66.143C64.6254 65.583 63.6154 65.063 62.5154 64.583C61.4354 64.103 60.4354 63.743 59.5154 63.503C60.3354 61.503 60.9054 59.433 61.2254 57.293C61.5454 55.153 61.7254 52.523 61.7654 49.403H60.2654V43.733H64.2254V42.623H70.7954V43.733H75.0254V49.373C75.6054 48.053 75.8954 46.233 75.8954 43.913L75.8654 42.653H81.3254L81.3554 43.553H88.7054V49.733H88.0754C88.0354 51.433 87.9054 52.963 87.6854 54.323C87.4654 55.663 87.1254 56.903 86.6654 58.043C87.2454 58.383 88.1754 58.813 89.4554 59.333ZM74.6054 50.153C74.8054 49.833 74.9354 49.583 74.9954 49.403H67.9154V50.153H74.6054ZM82.0754 53.753C82.2954 52.773 82.3854 51.433 82.3454 49.733H80.6054L80.4254 50.453C80.9254 51.733 81.4754 52.833 82.0754 53.753ZM74.6954 58.973C76.2754 58.993 77.6354 58.753 78.7754 58.253C78.3354 57.473 77.9854 56.773 77.7254 56.153C77.2654 56.813 76.7054 57.473 76.0454 58.133C75.6454 56.613 75.2154 55.253 74.7554 54.053L74.6954 58.973ZM68.3954 58.553C68.4354 58.113 68.4554 57.333 68.4554 56.213V55.043H67.7654C67.6654 56.903 67.4654 58.623 67.1654 60.203C67.5254 60.103 67.8054 59.933 68.0054 59.693C68.2254 59.453 68.3554 59.073 68.3954 58.553Z" fill="white"/>
</g>
<defs>
<filter id="filter0_d_1885_6452" x="0.976562" y="0.794922" width="112.392" height="112.392" filterUnits="userSpaceOnUse" color-interpolation-filters="sRGB">
<feFlood flood-opacity="0" result="BackgroundImageFix"/>
<feColorMatrix in="SourceAlpha" type="matrix" values="0 0 0 0 0 0 0 0 0 0 0 0 0 0 0 0 0 0 127 0" result="hardAlpha"/>
<feOffset dy="4"/>
<feGaussianBlur stdDeviation="2"/>
<feComposite in2="hardAlpha" operator="out"/>
<feColorMatrix type="matrix" values="0 0 0 0 0 0 0 0 0 0 0 0 0 0 0 0 0 0 0.25 0"/>
<feBlend mode="normal" in2="BackgroundImageFix" result="effect1_dropShadow_1885_6452"/>
<feBlend mode="normal" in="SourceGraphic" in2="effect1_dropShadow_1885_6452" result="shape"/>
</filter>
</defs>
</svg>
