<svg width="25" height="29" viewBox="0 0 25 29" fill="none" xmlns="http://www.w3.org/2000/svg">
<path d="M9.51451 2.92266L8.45424 4.53125H16.5458L15.4855 2.92266C15.4018 2.79805 15.2623 2.71875 15.1116 2.71875H9.88281C9.73214 2.71875 9.59263 2.79238 9.50893 2.92266H9.51451ZM17.7176 1.41602L19.7656 4.53125H23.6607C24.4029 4.53125 25 5.1373 25 5.89062C25 6.64395 24.4029 7.25 23.6607 7.25H23.2143V24.4688C23.2143 26.9723 21.2165 29 18.75 29H6.25C3.78348 29 1.78571 26.9723 1.78571 24.4688V7.25H1.33929C0.597098 7.25 0 6.64395 0 5.89062C0 5.1373 0.597098 4.53125 1.33929 4.53125H5.23438L7.28237 1.41035C7.86272 0.532422 8.83929 0 9.88281 0H15.1116C16.1551 0 17.1317 0.532422 17.7121 1.41035L17.7176 1.41602ZM4.46429 7.25V24.4688C4.46429 25.4713 5.26228 26.2812 6.25 26.2812H18.75C19.7377 26.2812 20.5357 25.4713 20.5357 24.4688V7.25H4.46429ZM8.92857 10.875V22.6562C8.92857 23.1547 8.52679 23.5625 8.03571 23.5625C7.54464 23.5625 7.14286 23.1547 7.14286 22.6562V10.875C7.14286 10.3766 7.54464 9.96875 8.03571 9.96875C8.52679 9.96875 8.92857 10.3766 8.92857 10.875ZM13.3929 10.875V22.6562C13.3929 23.1547 12.9911 23.5625 12.5 23.5625C12.0089 23.5625 11.6071 23.1547 11.6071 22.6562V10.875C11.6071 10.3766 12.0089 9.96875 12.5 9.96875C12.9911 9.96875 13.3929 10.3766 13.3929 10.875ZM17.8571 10.875V22.6562C17.8571 23.1547 17.4554 23.5625 16.9643 23.5625C16.4732 23.5625 16.0714 23.1547 16.0714 22.6562V10.875C16.0714 10.3766 16.4732 9.96875 16.9643 9.96875C17.4554 9.96875 17.8571 10.3766 17.8571 10.875Z" fill="#FF892E"/>
</svg>
