<svg width="25" height="25" viewBox="0 0 25 25" fill="none" xmlns="http://www.w3.org/2000/svg">
<path d="M1.74609 1.69141H4.19054L4.67943 4.13585M4.67943 4.13585H23.7461L18.8572 13.9136H6.63498M4.67943 4.13585L6.63498 13.9136M6.63498 13.9136L3.83243 16.7162C3.06243 17.4862 3.60754 18.8025 4.69654 18.8025H18.8572M18.8572 18.8025C18.2089 18.8025 17.5871 19.0601 17.1287 19.5185C16.6703 19.9769 16.4128 20.5987 16.4128 21.247C16.4128 21.8953 16.6703 22.517 17.1287 22.9754C17.5871 23.4339 18.2089 23.6914 18.8572 23.6914C19.5055 23.6914 20.1273 23.4339 20.5857 22.9754C21.0441 22.517 21.3016 21.8953 21.3016 21.247C21.3016 20.5987 21.0441 19.9769 20.5857 19.5185C20.1273 19.0601 19.5055 18.8025 18.8572 18.8025ZM9.07943 21.247C9.07943 21.8953 8.82189 22.517 8.36347 22.9754C7.90504 23.4339 7.28329 23.6914 6.63498 23.6914C5.98668 23.6914 5.36492 23.4339 4.9065 22.9754C4.44808 22.517 4.19054 21.8953 4.19054 21.247C4.19054 20.5987 4.44808 19.9769 4.9065 19.5185C5.36492 19.0601 5.98668 18.8025 6.63498 18.8025C7.28329 18.8025 7.90504 19.0601 8.36347 19.5185C8.82189 19.9769 9.07943 20.5987 9.07943 21.247Z" stroke="#FF892E" stroke-width="2" stroke-linecap="round" stroke-linejoin="round"/>
</svg>
