<svg width="24" height="24" viewBox="0 0 24 24" fill="none" xmlns="http://www.w3.org/2000/svg">
<path fill-rule="evenodd" clip-rule="evenodd" d="M11.5727 0.0712891C17.9704 0.0712891 23.1542 5.25516 23.1542 11.644C23.1542 18.0328 17.9704 23.2255 11.5727 23.2255C5.17499 23.2255 0 18.0387 0 11.644C0 5.24924 5.18387 0.0712891 11.5727 0.0712891ZM11.1997 18.7492V17.34C10.4921 17.2482 9.92367 17.0884 9.47367 16.8634C9.03551 16.6295 8.65361 16.2653 8.33683 15.7621C8.01117 15.2499 7.83354 14.6341 7.77729 13.8969L9.1865 13.6275C9.299 14.3913 9.49439 14.9509 9.77268 15.3061C10.1635 15.8094 10.6401 16.0907 11.1997 16.144V11.715C10.6135 11.567 10.0243 11.3154 9.41742 10.9779C8.97038 10.7262 8.624 10.3798 8.38124 9.93279C8.13848 9.48575 8.01709 8.98246 8.01709 8.42292C8.01709 7.41634 8.37236 6.60516 9.07992 5.98049C9.55656 5.5601 10.2641 5.29957 11.1967 5.20779V4.53576H12.0256V5.20779C12.8457 5.29069 13.4881 5.53345 13.9737 5.93608C14.5806 6.44825 14.9536 7.15878 15.075 8.05286L13.6302 8.27786C13.5562 7.71832 13.3786 7.28904 13.1181 6.99003C12.8487 6.69102 12.4934 6.49562 12.0286 6.40385V10.4686C12.7362 10.6552 13.2128 10.7943 13.4378 10.8979C13.876 11.0844 14.2312 11.3183 14.5095 11.5966C14.7878 11.8749 15.0039 12.2035 15.152 12.5854C15.2911 12.9673 15.3651 13.3788 15.3651 13.8259C15.3651 14.8058 15.0572 15.617 14.4414 16.2683C13.8168 16.9226 13.0145 17.2749 12.0256 17.3223V18.7492H11.1967H11.1997ZM11.1997 6.38608C10.649 6.46898 10.2197 6.69398 9.90295 7.04924C9.58617 7.4045 9.4263 7.82194 9.4263 8.31634C9.4263 8.81075 9.56545 9.20154 9.82597 9.51831C10.0954 9.84397 10.5543 10.0867 11.1967 10.2555V6.38608H11.1997ZM12.0286 16.1499C12.5793 16.0848 13.0352 15.842 13.3904 15.4423C13.7457 15.0308 13.9204 14.5275 13.9204 13.9236C13.9204 13.4114 13.799 12.9999 13.5473 12.692C13.2868 12.3841 12.7835 12.1325 12.0286 11.9371V16.1528V16.1499ZM11.5727 2.78905C16.4694 2.78905 20.4394 6.75319 20.4394 11.6469C20.4394 16.5407 16.4664 20.5137 11.5727 20.5137C6.67894 20.5137 2.7148 16.5407 2.7148 11.6469C2.7148 6.75319 6.67598 2.78609 11.5727 2.78609V2.78905Z" fill="#FF892E"/>
</svg>
