<svg width="219" height="35" viewBox="0 0 219 35" fill="none" xmlns="http://www.w3.org/2000/svg">
<path d="M84.3504 7.42022V7.9373H93.6891V10.7906H69.0996V7.9373H78.4383V7.42022H70.4577V5.02793H78.4383V4.4797H70.1836V1.38966H78.4383V0.666992H84.3442V1.38966H92.5988V4.4797H84.3442V5.02793H92.3185V7.42022H84.3442H84.3504ZM92.0257 20.3473C92.0257 20.9827 91.8014 21.4749 91.3591 21.8176C90.9105 22.1664 90.057 22.4219 88.7861 22.5838C87.5152 22.7458 85.6089 22.8268 83.0671 22.8268C82.9487 22.154 82.7992 21.5746 82.6248 21.0949C82.4503 20.6152 82.1513 20.0856 81.7276 19.5063C82.3195 19.5249 83.0422 19.5374 83.9019 19.5374C84.8613 19.5374 85.4718 19.5125 85.7335 19.4626C85.9951 19.4128 86.126 19.3256 86.126 19.1885V18.958H76.6316V22.6773H70.7755V11.3451H92.0319V20.3473H92.0257ZM86.1197 14.2295V13.7124H76.6253V14.2295H86.1197ZM76.6253 16.3041V16.8212H86.1197V16.3041H76.6253Z" fill="black"/>
<path d="M124.571 14.6644V20.1467H117.376V23H111.843V20.1467H100.835V14.6644H104.118V12.4403C103.782 12.8452 103.421 13.2315 103.034 13.5928C102.611 12.1724 102.212 10.9451 101.838 9.91717C101.458 8.88924 101.01 7.90491 100.486 6.95796C101.346 6.30382 102.031 5.41917 102.542 4.30402C103.053 3.18886 103.321 1.93042 103.34 0.522461L109.046 0.57853C109.015 1.02085 108.959 1.49433 108.897 1.99272H123.612V7.18847H117.376V8.42822H122.933V13.0134H117.376V14.6581H124.571V14.6644ZM111.85 7.1947H107.433L106.853 8.43445H111.85V7.1947ZM109.551 13.0197V14.6644H111.85V13.0197H109.551Z" fill="black"/>
<path d="M156.505 16.7702C156.119 17.5178 155.863 18.3215 155.733 19.1625C155.608 20.0098 155.49 21.1374 155.39 22.5391C152.362 22.6762 149.82 22.7385 147.765 22.7385C144.955 22.7385 142.706 22.5828 141.024 22.2775C139.342 21.9722 137.865 21.4676 136.607 20.7761C135.797 21.3928 134.588 22.1404 132.968 23.0251L132.844 22.4457C132.557 21.044 132.302 19.9039 132.084 19.0255C131.866 18.1533 131.604 17.3185 131.299 16.5273C131.716 16.4089 132.115 16.2594 132.483 16.0663C132.85 15.8731 133.149 15.68 133.367 15.4869V13.3812H131.853L131.878 8.62152H138.015C138.775 7.08273 139.348 5.67477 139.747 4.39763C140.139 3.1205 140.451 1.86206 140.669 0.634766L145.54 1.27022L145.235 2.65326H146.294L146.749 0.746904L152.026 1.46957L151.397 2.65326H155.564V6.17316H151.122V6.75254H155.184V9.54977H151.122V10.1292H155.184V12.9264H151.122V13.5058H155.689V16.7952H139.535V9.87373C139.335 9.81766 139.074 9.74913 138.75 9.67437V16.7702C140.818 17.2873 143.715 17.549 147.434 17.549C150.362 17.549 153.384 17.2873 156.499 16.7702H156.505ZM138.102 8.05459C135.878 7.34438 133.778 6.79615 131.791 6.4099L133.28 1.41973C135.635 2.07388 137.678 2.74048 139.416 3.41331L138.102 8.06082V8.05459ZM144.537 6.75877H146.406V6.17939H144.537V6.75877ZM144.537 10.1354H146.406V9.556H144.537V10.1354ZM144.537 13.512H146.406V12.9326H144.537V13.512Z" fill="black"/>
<path d="M187.455 5.68791H181.774V6.32336H187.026V18.8455C187.026 19.9793 186.926 20.8017 186.733 21.3125C186.54 21.8234 186.116 22.191 185.468 22.409C184.82 22.6333 183.761 22.7392 182.297 22.7392C182.266 21.8919 182.197 21.1256 182.098 20.4279C181.998 19.7364 181.817 18.9826 181.568 18.1789L182.073 18.235C182.154 18.235 182.216 18.2163 182.247 18.1789C182.278 18.1415 182.297 18.0605 182.297 17.9484V17.5434H181.138V22.1287H177.176V17.5434H175.936V22.5087H171.214V17.1447L170.28 19.1071C170.192 18.8953 170.111 18.6274 170.024 18.2973C169.906 17.9733 169.787 17.6182 169.669 17.2444C169.551 16.8706 169.414 16.4906 169.264 16.1043V22.9136H164.641V18.8143L163.452 20.1413C163.383 18.7396 163.277 17.4874 163.121 16.3909C162.966 15.2944 162.716 14.2167 162.361 13.1576C163.576 12.0237 164.735 10.3043 165.844 7.99298H163.321V2.42967H164.585V0.784969H169.762V2.42967H170.722V7.96806C170.049 9.50685 169.563 10.6033 169.258 11.2575V12.41C169.762 11.3696 170.143 10.4787 170.392 9.7249L171.202 10.7653V6.32336H176.678V5.68791H171.301V1.50764H176.678V0.666601H181.755V1.50141H182.06L182.739 0C183.462 0.367565 184.197 0.865958 184.939 1.50141H187.437V5.68791H187.455ZM171.22 14.8646V12.8149C170.865 13.2199 170.516 13.5937 170.161 13.9426C170.261 14.036 170.616 14.3475 171.22 14.8646ZM177.176 10.5348V9.49439H175.936V10.5348H177.176ZM175.936 13.5065V14.5469H177.176V13.5065H175.936ZM181.138 10.5348H182.297V9.49439H181.138V10.5348ZM181.138 13.5065V14.5469H182.297V13.5065H181.138Z" fill="black"/>
<path d="M195.835 20.6092C196.152 20.0485 196.451 19.3943 196.719 18.6467C197.778 18.7028 198.887 18.7339 200.052 18.7339C200.339 18.7526 200.731 18.7651 201.236 18.7651C201.167 19.6684 201.068 20.4223 200.931 21.0328C200.794 21.6433 200.594 22.3161 200.326 23.07C197.99 22.746 195.99 22.5342 194.346 22.4345C195.019 21.7804 195.517 21.1761 195.835 20.6154V20.6092ZM196.744 9.27071V6.33019H194.875V1.79481H198.109L197.909 1.10329L202.607 0.785561L202.862 1.79481H203.996V0.729492H209.248V1.79481H210.382L210.637 0.785561L215.334 1.10329L215.135 1.79481H218.368V6.32396H216.755V9.26448H196.763L196.744 9.27071ZM209.266 16.1921H218.331V18.2667H194.956V16.1921H204.021V15.9305H195.486V13.9681H204.021V13.6192H195.436V9.66942H217.851V13.6192H209.266V13.9681H217.801V15.9305H209.266V16.1921ZM213.104 4.71041H200.127V5.0842H213.104V4.71041ZM201.211 11.0587H200.906V12.1863H201.361L201.211 11.0587ZM204.949 18.7339L205.784 18.7028C205.815 18.8399 205.859 18.9831 205.896 19.1327C205.94 19.2884 205.977 19.4628 206.008 19.6497C206.376 21.1698 206.606 22.1978 206.687 22.7398C205.273 22.7398 203.585 22.827 201.616 23.0014C201.716 21.0203 201.759 19.6248 201.741 18.8149C202.432 18.8336 203.497 18.8025 204.949 18.7277V18.7339ZM203.155 7.3955H210.325V6.81612H203.155V7.3955ZM204.015 12.1863V11.0587H203.56L203.61 12.1863H204.015ZM207.372 18.7962C208.787 18.7215 209.846 18.6405 210.556 18.5657C210.892 19.0641 211.241 19.6996 211.603 20.4721C211.964 21.2446 212.263 21.9984 212.5 22.7522C211.054 22.7522 209.385 22.8395 207.503 23.0139C207.354 22.285 207.167 21.5063 206.949 20.6777C206.731 19.8491 206.544 19.2448 206.394 18.8585L207.379 18.8025L207.372 18.7962ZM209.266 11.0649V12.1925H209.572L209.646 11.0649H209.266ZM216.487 19.3445C217.465 20.4596 218.231 21.3754 218.786 22.0856C217.284 22.2601 215.565 22.5591 213.609 22.9827C213.272 22.3286 212.917 21.6558 212.537 20.9643C212.157 20.2727 211.752 19.5874 211.31 18.9146C213.042 18.6841 214.456 18.4723 215.552 18.2792L216.487 19.3445ZM212.369 12.1863V11.0587H212.014C211.945 11.5571 211.889 11.9371 211.839 12.1863H212.369Z" fill="black"/>
<path d="M76.1487 28.3701L76.0054 28.5944C75.4634 29.4479 74.9962 30.2017 74.6099 30.8559C74.2237 31.51 73.8997 32.1143 73.6381 32.6625V33.9646H71.6569V32.5317C71.47 32.1454 71.2458 31.7467 70.9966 31.3418C70.7411 30.9306 70.386 30.3699 69.9188 29.6597C69.5575 29.1177 69.2771 28.6878 69.084 28.3701H71.2146C71.3641 28.6816 71.6133 29.1489 71.9622 29.7656C72.3049 30.3948 72.5416 30.8372 72.6662 31.0926C72.8406 30.7188 73.0836 30.2578 73.3826 29.7095C73.7315 29.0741 73.9682 28.6255 74.0866 28.3701H76.1549H76.1487Z" fill="#7D7D7D"/>
<path d="M77.463 33.2801C76.9147 32.7693 76.6406 32.0528 76.6406 31.1246C76.6406 30.1963 76.9147 29.4923 77.4567 28.9815C77.9987 28.4644 78.8585 28.209 80.0235 28.209C81.1885 28.209 82.0482 28.4644 82.5964 28.9815C83.1447 29.4986 83.4125 30.2088 83.4125 31.1246C83.4125 32.0404 83.1384 32.7755 82.5964 33.2864C82.0544 33.7972 81.1947 34.0526 80.0235 34.0526C78.8522 34.0526 78.0112 33.7972 77.463 33.2864V33.2801ZM81.2383 32.1463C81.4875 31.9282 81.6121 31.5856 81.6121 31.1246C81.6121 30.6636 81.4875 30.3334 81.2383 30.1153C80.9891 29.8973 80.5842 29.7852 80.0235 29.7852C79.4628 29.7852 79.0641 29.8973 78.8149 30.1153C78.5657 30.3334 78.4411 30.676 78.4411 31.1246C78.4411 31.5731 78.5657 31.922 78.8149 32.1401C79.0641 32.3581 79.4628 32.4702 80.0235 32.4702C80.5842 32.4702 80.9891 32.3643 81.2383 32.1401V32.1463Z" fill="#7D7D7D"/>
<path d="M89.0567 28.3652H90.9444V31.4366C90.9319 32.1904 90.6827 32.8196 90.1781 33.3118C89.6797 33.8039 88.8387 34.0531 87.6612 34.0531C86.4838 34.0531 85.649 33.8164 85.2066 33.3492C84.7643 32.8819 84.5525 32.2589 84.5587 31.4927V28.3715H86.4464V31.3681C86.4464 31.5923 86.4651 31.7792 86.4962 31.9225C86.5274 32.0658 86.6333 32.1966 86.814 32.3212C86.9946 32.4458 87.2812 32.5081 87.6861 32.5081C88.1222 32.5081 88.44 32.4458 88.6455 32.3212C88.8511 32.1966 88.9695 32.0533 89.0069 31.9038C89.0443 31.7481 89.063 31.555 89.063 31.312V28.3839L89.0567 28.3652Z" fill="#7D7D7D"/>
<path d="M98.6403 29.9899C97.8428 29.965 97.0703 29.9463 96.3227 29.9463V33.9708H94.4226V29.9463C93.6688 29.9463 92.8963 29.965 92.1113 29.9899V28.3701H98.6403V29.9899Z" fill="#7D7D7D"/>
<path d="M106.164 28.3701C106.127 29.2361 106.108 30.1706 106.108 31.1674C106.108 32.1641 106.127 33.0986 106.164 33.9646H104.376V31.8651H101.579V33.9646H99.791C99.8284 32.9678 99.8533 32.0333 99.8533 31.1674C99.8533 30.3014 99.8346 29.3669 99.791 28.3701H101.579V30.4696H104.376V28.3701H106.164Z" fill="#7D7D7D"/>
<path d="M114.855 31.8651L115.247 28.3701H117.104L116.088 33.9708H113.752L113.235 30.8496L112.637 33.9708H110.4L109.385 28.3701H111.241L111.628 31.8153L112.238 28.3701H114.269L114.861 31.8651H114.855Z" fill="#7D7D7D"/>
<path d="M122.45 33.9708C122.356 33.678 122.225 33.3104 122.063 32.8681H119.64L119.26 33.9708H117.354L119.484 28.3701H122.281L124.424 33.9708H122.456H122.45ZM121.627 31.6657C121.434 31.1237 121.235 30.588 121.035 30.046L120.855 29.5476C120.674 30.0148 120.419 30.725 120.07 31.6657H121.627Z" fill="#7D7D7D"/>
<path d="M131.59 28.377C131.553 29.2429 131.54 30.1774 131.54 31.168C131.54 32.1585 131.559 33.0992 131.59 33.9652H128.868L127.03 29.7538L127.167 33.9652H125.217C125.254 32.9684 125.279 32.0339 125.279 31.168C125.279 30.302 125.26 29.3737 125.217 28.377H128.014L129.858 32.7005L129.727 28.377H131.59Z" fill="#7D7D7D"/>
<path d="M139.277 29.9899C138.48 29.965 137.707 29.9463 136.959 29.9463V33.9708H135.059V29.9463C134.306 29.9463 133.533 29.965 132.748 29.9899V28.3701H139.277V29.9899Z" fill="#7D7D7D"/>
<path d="M149.025 29.9899C148.228 29.965 147.455 29.9463 146.708 29.9463V33.9708H144.807V29.9463C144.054 29.9463 143.281 29.965 142.496 29.9899V28.3701H149.025V29.9899Z" fill="#7D7D7D"/>
<path d="M150.547 33.2801C149.999 32.7693 149.725 32.0528 149.725 31.1246C149.725 30.1963 149.999 29.4923 150.541 28.9815C151.083 28.4644 151.942 28.209 153.107 28.209C154.272 28.209 155.132 28.4644 155.68 28.9815C156.229 29.4986 156.497 30.2088 156.497 31.1246C156.497 32.0404 156.222 32.7755 155.68 33.2864C155.138 33.7972 154.279 34.0526 153.107 34.0526C151.936 34.0526 151.095 33.7972 150.547 33.2864V33.2801ZM154.322 32.1463C154.571 31.9282 154.696 31.5856 154.696 31.1246C154.696 30.6636 154.571 30.3334 154.322 30.1153C154.073 29.8973 153.668 29.7852 153.107 29.7852C152.547 29.7852 152.148 29.8973 151.899 30.1153C151.65 30.3334 151.525 30.676 151.525 31.1246C151.525 31.5731 151.65 31.922 151.899 32.1401C152.148 32.3581 152.547 32.4702 153.107 32.4702C153.668 32.4702 154.073 32.3643 154.322 32.1401V32.1463Z" fill="#7D7D7D"/>
<path d="M161.513 32.5572C163.438 32.5448 164.834 32.5198 165.699 32.47C165.662 32.6818 165.643 32.8999 165.637 33.1241C165.631 33.3484 165.625 33.6288 165.625 33.9714H159.719C159.756 32.9746 159.781 32.0401 159.781 31.1742C159.781 30.3082 159.762 29.3737 159.719 28.377H165.625V29.7725H161.513V30.5138C161.756 30.5138 162.117 30.52 162.591 30.52C163.394 30.52 164.229 30.5076 165.089 30.4764V31.8034C164.229 31.7723 163.394 31.7598 162.591 31.7598C162.117 31.7598 161.756 31.7598 161.513 31.766V32.5697V32.5572Z" fill="#7D7D7D"/>
<path d="M171.192 33.9708C171.098 33.678 170.968 33.3104 170.806 32.8681H168.382L168.002 33.9708H166.096L168.226 28.3701H171.024L173.167 33.9708H171.198H171.192ZM170.369 31.6657C170.176 31.1237 169.977 30.588 169.778 30.046L169.597 29.5476C169.416 30.0148 169.161 30.725 168.812 31.6657H170.369Z" fill="#7D7D7D"/>
<path d="M180.187 29.9899C179.39 29.965 178.617 29.9463 177.87 29.9463V33.9708H175.969V29.9463C175.216 29.9463 174.443 29.965 173.658 29.9899V28.3701H180.187V29.9899Z" fill="#7D7D7D"/>
<path d="M186.86 28.377C187.869 28.377 188.573 28.5576 188.965 28.919C189.358 29.2803 189.557 29.7911 189.557 30.4515C189.557 30.9063 189.476 31.2863 189.32 31.604C189.165 31.9218 188.884 32.1647 188.492 32.3454C188.099 32.5198 187.551 32.6133 186.86 32.6133H185.277V33.9714H183.408C183.446 32.9746 183.471 32.0401 183.471 31.1742C183.471 30.3082 183.452 29.3737 183.408 28.377H185.277L186.86 28.3832V28.377ZM186.33 31.1243C186.747 31.1243 187.065 31.1057 187.277 31.0745C187.489 31.0434 187.632 30.9811 187.719 30.8938C187.8 30.8066 187.844 30.6758 187.844 30.5076C187.844 30.3394 187.807 30.2085 187.726 30.1276C187.645 30.0466 187.501 29.9843 187.289 29.9531C187.078 29.922 186.76 29.9095 186.33 29.9095H185.283V31.1306H186.33V31.1243Z" fill="#7D7D7D"/>
<path d="M194.748 33.9708C194.655 33.678 194.524 33.3104 194.362 32.8681H191.939L191.559 33.9708H189.652L191.783 28.3701H194.58L196.723 33.9708H194.755H194.748ZM193.926 31.6657C193.733 31.1237 193.534 30.588 193.334 30.046L193.154 29.5476C192.973 30.0148 192.717 30.725 192.369 31.6657H193.926Z" fill="#7D7D7D"/>
<path d="M203.443 31.3735C203.225 31.685 202.858 31.9031 202.335 32.0464C202.397 32.1274 202.44 32.1959 202.465 32.2395L203.699 33.9714H201.631C201.406 33.5478 201.057 32.9559 200.571 32.1834H199.456V33.9714H197.662C197.699 32.9746 197.724 32.0401 197.724 31.1742C197.724 30.3082 197.706 29.3737 197.662 28.377H199.456L201.014 28.3832C202.036 28.3832 202.752 28.5514 203.157 28.8816C203.562 29.218 203.767 29.6665 203.767 30.2397C203.767 30.6883 203.662 31.062 203.443 31.3735ZM199.456 29.8597V30.7381H200.484C200.914 30.7381 201.238 30.7256 201.462 30.6945C201.68 30.6633 201.836 30.6197 201.923 30.5574C202.011 30.4951 202.054 30.4079 202.054 30.2895C202.054 30.1712 202.011 30.0902 201.93 30.0279C201.849 29.9656 201.699 29.922 201.475 29.8971C201.251 29.8721 200.92 29.8597 200.484 29.8597H199.456Z" fill="#7D7D7D"/>
<path d="M211.07 29.9899C210.273 29.965 209.5 29.9463 208.752 29.9463V33.9708H206.852V29.9463C206.098 29.9463 205.326 29.965 204.541 29.9899V28.3701H211.07V29.9899Z" fill="#7D7D7D"/>
<path d="M218.992 28.3701L218.849 28.5944C218.307 29.4479 217.84 30.2017 217.454 30.8559C217.067 31.51 216.743 32.1143 216.482 32.6625V33.9646H214.501V32.5317C214.314 32.1454 214.09 31.7467 213.84 31.3418C213.585 30.9306 213.23 30.3699 212.763 29.6597C212.401 29.1177 212.121 28.6878 211.928 28.3701H214.058C214.208 28.6816 214.457 29.1489 214.806 29.7656C215.149 30.3948 215.385 30.8372 215.51 31.0926C215.684 30.7188 215.927 30.2578 216.226 29.7095C216.575 29.0741 216.812 28.6255 216.93 28.3701H218.999H218.992Z" fill="#7D7D7D"/>
<path d="M29.6544 7.35728C29.5983 7.28252 29.5423 7.20776 29.48 7.133C29.0563 6.60346 28.6015 6.09884 28.1156 5.62536C27.9536 5.46962 27.7917 5.31387 27.6234 5.16435C27.287 4.85908 26.9382 4.57251 26.583 4.29839C25.8666 3.75016 25.1003 3.258 24.2967 2.83436C23.8917 2.62255 23.4806 2.42319 23.0631 2.24252C22.2221 1.88119 21.3437 1.58838 20.4341 1.37033C19.1819 1.0713 17.8861 0.890629 16.5467 0.890629C7.40737 0.884399 0 8.29177 0 17.4248C0 26.5579 7.40737 33.9652 16.5404 33.9652C17.8799 33.9652 19.1819 33.7908 20.4279 33.4855C21.786 33.1554 23.0818 32.6632 24.2904 32.0215C25.0941 31.5917 25.8604 31.1057 26.5768 30.5575C26.9382 30.2834 27.2808 29.9968 27.6172 29.6915C27.7854 29.542 27.9474 29.3863 28.1094 29.2305C28.4333 28.9128 28.7448 28.5888 29.0376 28.2462C29.1062 28.1714 29.1622 28.0904 29.2245 28.0095C29.3678 27.8412 29.4987 27.6668 29.6357 27.4924C27.4926 24.7014 26.2155 21.2126 26.2155 17.4248C26.2155 13.637 27.4926 10.1421 29.6419 7.35105L29.6544 7.35728Z" fill="#FF892E"/>
<path d="M59.246 15.967C58.9781 12.9144 57.8817 10.0984 56.1809 7.75599C56.1622 7.73107 56.1435 7.69992 56.1248 7.66877C55.994 7.48811 55.8507 7.30744 55.7137 7.133C55.29 6.60346 54.8352 6.09883 54.3493 5.62536C54.1873 5.46961 54.0254 5.31386 53.8571 5.16435C53.5207 4.85908 53.1719 4.5725 52.8168 4.29839C52.1003 3.75016 51.334 3.25799 50.5304 2.83436C50.1254 2.62254 49.7143 2.42318 49.2968 2.24252C48.4558 1.88118 47.5774 1.58838 46.6678 1.37033C45.4156 1.07129 44.1198 0.890625 42.7804 0.890625C37.4351 0.890625 32.6879 3.4262 29.6602 7.36351C29.7411 7.46942 29.8221 7.56909 29.8969 7.675C29.9156 7.69992 29.9343 7.73107 29.953 7.76222C31.6537 10.1109 32.7502 12.9206 33.0181 15.9732C33.0617 16.4467 33.0804 16.9202 33.0866 17.3999C33.1053 12.0733 37.4413 7.74353 42.7741 7.74353C43.5093 7.74353 44.2506 7.83698 45.0543 8.03011C45.5838 8.15471 46.0947 8.32914 46.5868 8.54096C46.8298 8.64687 47.0728 8.76524 47.3157 8.88984C47.783 9.13903 48.2315 9.42561 48.6489 9.74333C48.867 9.91154 49.0663 10.0798 49.2657 10.2542C49.3778 10.3539 49.4713 10.4411 49.5585 10.5283C49.8451 10.8086 50.113 11.1015 50.3622 11.413C50.4182 11.4877 50.4805 11.5625 50.5366 11.6372C50.5678 11.6871 50.6051 11.7369 50.6363 11.7805C51.658 13.1885 52.2748 14.8456 52.4243 16.5713C52.4492 16.889 52.4679 17.1694 52.4679 17.431C52.4679 17.917 52.4243 18.4216 52.3371 18.9698C52.2374 19.5804 52.0941 20.1535 51.9072 20.6768C51.8573 20.8139 51.8137 20.9323 51.7639 21.0569C51.4649 21.792 51.0724 22.496 50.5989 23.1377C50.4743 23.3059 50.3435 23.4616 50.2126 23.6174C50.1503 23.6921 50.0818 23.7731 50.0195 23.8541C49.8762 24.0098 49.7205 24.178 49.5585 24.34C49.4588 24.4397 49.3654 24.5269 49.2719 24.6079C49.0726 24.7886 48.867 24.9568 48.6614 25.1125C48.2378 25.4365 47.783 25.7293 47.3157 25.9785C46.5993 26.3585 45.8455 26.6451 45.0605 26.832C44.2568 27.0251 43.5155 27.1186 42.7804 27.1186C37.4475 27.1186 33.1115 22.7888 33.0928 17.4622C33.0928 18.3406 33.0118 19.2003 32.881 20.0414C32.719 21.0506 32.4761 22.035 32.1397 22.9819C32.0649 23.2 31.9777 23.4118 31.8967 23.6236C31.3796 24.9007 30.7068 26.0969 29.9031 27.1871C29.8284 27.293 29.7411 27.3927 29.6602 27.4924C32.6817 31.4297 37.4351 33.9715 42.7866 33.9715C44.126 33.9715 45.4281 33.797 46.6741 33.4918C48.0322 33.1616 49.328 32.6694 50.5366 32.0277C51.3403 31.5979 52.1065 31.1119 52.823 30.5637C53.1843 30.2896 53.527 30.003 53.8634 29.6978C54.0316 29.5482 54.1936 29.3925 54.3555 29.2367C54.6795 28.919 54.991 28.5951 55.2838 28.2524C55.3523 28.1777 55.4084 28.0967 55.4707 28.0157C55.695 27.7478 55.9192 27.4737 56.1311 27.1933C56.9347 26.1031 57.6076 24.9069 58.1246 23.6298C58.2119 23.418 58.2928 23.2 58.3676 22.9881C58.704 22.0474 58.947 21.0631 59.109 20.0476C59.246 19.1941 59.3208 18.3219 59.3208 17.431C59.3208 16.9389 59.2959 16.453 59.2523 15.9732L59.246 15.967Z" fill="#D4FF1F"/>
<path d="M31.8833 23.6234C31.9705 23.4115 32.0515 23.1935 32.1263 22.9817C32.4627 22.041 32.7057 21.0566 32.8677 20.0412C33.0047 19.2001 33.0795 18.3404 33.0795 17.462C33.0795 17.4495 33.0795 17.4433 33.0795 17.4308C33.0795 17.4184 33.0795 17.4121 33.0795 17.3997C33.0795 16.92 33.0546 16.4403 33.0109 15.973C32.7431 12.9204 31.6466 10.1044 29.9458 7.762C29.9271 7.73708 29.9084 7.70593 29.8898 7.67478C29.815 7.56887 29.7278 7.46919 29.653 7.36328C27.5099 10.1543 26.2266 13.643 26.2266 17.4371C26.2266 21.2311 27.5037 24.7136 29.6468 27.5046C29.7278 27.4049 29.815 27.3052 29.8898 27.1993C30.6934 26.1091 31.3662 24.913 31.8833 23.6358V23.6234Z" fill="#93E6D7"/>
<path d="M18.2117 13.8616V14.6465H23.4884V16.584H9.5957V14.6465H14.8724V13.8616H9.5957V12.2418H14.8724V11.4381H9.5957V9.34488H14.8724V8.42285H18.2117V9.34488H23.4884V11.4381H18.2117V12.2418H23.4884V13.8616H18.2117Z" fill="white"/>
<path d="M10.5371 17.7803V26.3339H13.8452V23.381H19.2092V23.9666C19.2092 24.06 19.1344 24.1223 18.9911 24.1535C18.8478 24.1846 18.4989 24.2033 17.9569 24.2033C17.471 24.2033 17.0661 24.1971 16.7296 24.1846C16.9664 24.5771 17.1346 24.9322 17.2343 25.2624C17.3339 25.5864 17.4149 25.9788 17.4835 26.4336C18.9163 26.4336 19.9941 26.3776 20.7168 26.2654C21.4395 26.1533 21.9192 25.9788 22.1746 25.7483C22.4238 25.5116 22.5546 25.1814 22.5546 24.7515V17.7865H10.5371V17.7803ZM19.2092 21.9294H13.8452V21.1444H19.2092V21.9294ZM19.2092 20.1663H13.8452V19.3814H19.2092V20.1663Z" fill="white"/>
</svg>
