<svg width="194" height="172" viewBox="0 0 194 172" fill="none" xmlns="http://www.w3.org/2000/svg">
<path d="M96.6623 21.039C96.4804 20.8012 96.2986 20.5494 96.1027 20.3116C94.7318 18.5909 93.2489 16.9542 91.6681 15.4154C91.1365 14.8978 90.6049 14.3941 90.0594 13.9045C88.9682 12.9253 87.8351 11.988 86.674 11.0927C84.3378 9.30205 81.8477 7.70727 79.2317 6.32234C77.9307 5.62288 76.5877 4.97937 75.2168 4.40581C72.4749 3.23072 69.6211 2.27945 66.6693 1.566C62.6124 0.58675 58.3877 0.0131897 54.023 0.0131897C24.3239 -0.000799564 0.234375 24.0747 0.234375 53.7879C0.234375 83.501 24.3239 107.591 54.037 107.591C58.4017 107.591 62.6264 107.017 66.6833 106.038C71.1039 104.975 75.3147 103.352 79.2457 101.267C81.8617 99.8825 84.3517 98.2877 86.688 96.4971C87.863 95.6017 88.9822 94.6645 90.0733 93.6852C90.6189 93.1956 91.1505 92.692 91.6821 92.1744C92.7313 91.1532 93.7385 90.076 94.7038 88.9708C94.9136 88.719 95.1095 88.4532 95.3193 88.2014C95.781 87.6558 96.2146 87.0823 96.6623 86.5227C89.6956 77.4577 85.5408 66.1124 85.5408 53.7879C85.5408 41.4633 89.6956 30.1041 96.6763 21.025L96.6623 21.039Z" fill="#FF892E"/>
<path d="M192.908 49.0463C192.041 39.114 188.474 29.965 182.934 22.3268C182.864 22.2429 182.808 22.145 182.738 22.0471C182.305 21.4595 181.857 20.872 181.395 20.2984C180.024 18.5777 178.542 16.941 176.961 15.4022C176.429 14.8846 175.898 14.3809 175.352 13.8913C174.261 12.9121 173.128 11.9748 171.967 11.0795C169.63 9.28887 167.14 7.69409 164.524 6.30915C163.223 5.60969 161.88 4.96619 160.509 4.39263C157.767 3.21753 154.914 2.26626 151.962 1.55281C147.905 0.57356 143.68 0 139.316 0C121.941 0 106.483 8.25366 96.6484 21.0398C96.9142 21.3756 97.18 21.7113 97.4318 22.061C97.5018 22.145 97.5577 22.2429 97.6277 22.3408C103.167 29.979 106.735 39.1279 107.602 49.0603C107.742 50.5991 107.812 52.1379 107.812 53.7047C107.868 36.3721 121.983 22.2989 139.316 22.2989C141.694 22.2989 144.128 22.6066 146.73 23.2361C148.451 23.6558 150.115 24.2014 151.724 24.8869C152.522 25.2226 153.305 25.6143 154.088 26.02C155.599 26.8174 157.068 27.7687 158.425 28.8039C159.124 29.3355 159.796 29.895 160.425 30.4546C160.789 30.7764 161.083 31.0561 161.377 31.3499C162.3 32.2592 163.181 33.2245 163.979 34.2317C164.175 34.4695 164.356 34.7073 164.538 34.9591C164.65 35.113 164.762 35.2809 164.874 35.4348C168.189 40.0093 170.204 45.3951 170.694 51.0188C170.777 52.04 170.833 52.9633 170.833 53.8167C170.833 55.3974 170.694 57.0342 170.414 58.8248C170.092 60.8113 169.63 62.6858 169.029 64.3645C168.875 64.7982 168.721 65.2039 168.567 65.5956C167.602 67.9878 166.329 70.268 164.79 72.3664C164.384 72.912 163.951 73.4156 163.531 73.9332C163.321 74.185 163.111 74.4368 162.916 74.7026C162.454 75.2202 161.936 75.7658 161.405 76.2834C161.069 76.6051 160.775 76.8849 160.467 77.1647C159.824 77.7523 159.152 78.3118 158.481 78.8154C157.096 79.8786 155.627 80.8159 154.102 81.6273C151.78 82.8583 149.318 83.7956 146.772 84.4111C144.17 85.0407 141.736 85.3484 139.358 85.3484C122.025 85.3484 107.91 71.2752 107.854 53.9426C107.854 56.7964 107.602 59.6082 107.154 62.3361C106.637 65.6236 105.839 68.8271 104.734 71.8908C104.482 72.5902 104.217 73.2897 103.937 73.9891C102.258 78.13 100.076 82.019 97.4598 85.5862C97.208 85.922 96.9282 86.2437 96.6624 86.5795C106.497 99.3796 121.955 107.647 139.344 107.647C143.708 107.647 147.933 107.074 151.99 106.094C156.411 105.031 160.621 103.409 164.552 101.324C167.168 99.9392 169.658 98.3444 171.995 96.5538C173.17 95.6585 174.289 94.7212 175.38 93.742C175.926 93.2523 176.457 92.7487 176.989 92.2311C178.038 91.2099 179.045 90.1327 180.01 89.0276C180.22 88.7758 180.416 88.51 180.626 88.2582C181.353 87.3769 182.095 86.5095 182.766 85.5862C185.382 82.033 187.565 78.144 189.243 73.9891C189.523 73.3037 189.789 72.6042 190.041 71.8908C191.132 68.8271 191.929 65.6236 192.461 62.3361C192.908 59.5662 193.16 56.7264 193.16 53.8306C193.16 52.2359 193.076 50.6551 192.936 49.0883L192.908 49.0463Z" fill="#D4FF1F"/>
<path d="M103.923 73.9476C104.203 73.2622 104.468 72.5627 104.72 71.8492C105.811 68.7856 106.609 65.5821 107.14 62.2946C107.574 59.5527 107.826 56.7548 107.84 53.901C107.84 53.8591 107.84 53.8311 107.84 53.8031C107.84 53.7751 107.84 53.7332 107.84 53.7052C107.84 52.1384 107.756 50.5856 107.63 49.0608C106.763 39.1284 103.195 29.9794 97.6557 22.3413C97.5858 22.2573 97.5298 22.1594 97.4599 22.0615C97.2081 21.7118 96.9423 21.39 96.6765 21.0403C89.6958 30.1193 85.541 41.4646 85.541 53.8031C85.541 66.1416 89.6958 77.4729 96.6625 86.538C96.9283 86.2022 97.2081 85.8805 97.4599 85.5447C100.076 81.9914 102.258 78.1024 103.937 73.9476H103.923Z" fill="#93E6D7"/>
<path d="M59.4658 42.2049V44.751H76.6166V51.0462H31.4453V44.751H48.6101V42.2049H31.4453V36.917H48.6101V34.315H31.4453V27.5022H48.6101V24.5085H59.4658V27.5022H76.6166V34.315H59.4658V36.917H76.6166V42.2049H59.4658Z" fill="white"/>
<path d="M34.5098 54.9493V82.7599H45.2675V73.1493H62.7121V75.0518C62.7121 75.3456 62.4743 75.5555 61.9986 75.6534C61.523 75.7513 60.4039 75.8073 58.6412 75.8073C57.0604 75.8073 55.7315 75.7933 54.6543 75.7513C55.4237 77.0243 55.9693 78.1854 56.305 79.2486C56.6268 80.3118 56.9066 81.5848 57.1164 83.0677C61.7888 83.0677 65.2861 82.8858 67.6223 82.5221C69.9585 82.1584 71.5393 81.5988 72.3507 80.8294C73.1761 80.06 73.5817 78.9828 73.5817 77.5839V54.9353H34.5098V54.9493ZM62.7121 68.4349H45.2675V65.8889H62.7121V68.4349ZM62.7121 62.7133H45.2675V60.1673H62.7121V62.7133Z" fill="white"/>
<path d="M19.8886 137.361V138.033H31.9054V141.712H0.261719V138.033H12.2785V137.361H2.02436V134.284H12.2925V133.584H1.66064V129.611H12.2785V128.688H19.8746V129.611H30.4925V133.584H19.8746V134.284H30.1428V137.361H19.8746H19.8886ZM29.7651 153.995C29.7651 154.806 29.4713 155.435 28.8977 155.883C28.3242 156.331 27.219 156.653 25.5823 156.862C23.9455 157.072 21.4974 157.184 18.2239 157.184C18.07 156.317 17.8882 155.575 17.6504 154.96C17.4265 154.344 17.0348 153.659 16.5032 152.917C17.2587 152.945 18.1959 152.959 19.3011 152.959C20.5321 152.959 21.3155 152.931 21.6513 152.861C21.987 152.805 22.1549 152.68 22.1549 152.512V152.218H9.94228V157.002H2.41606V142.411H29.7651V153.995ZM22.1689 146.119V145.447H9.94228V146.119H22.1549H22.1689ZM9.95627 148.791V149.462H22.1549V148.791H9.94228H9.95627Z" fill="black"/>
<path d="M71.6346 146.679V153.729H62.3737V157.408H55.2532V153.729H41.0961V146.679H45.3208V143.825C44.8872 144.342 44.4255 144.846 43.9219 145.308C43.3763 143.475 42.8727 141.894 42.3831 140.579C41.8935 139.25 41.3199 137.991 40.6484 136.774C41.7536 135.935 42.6349 134.788 43.2924 133.361C43.9499 131.92 44.2996 130.311 44.3136 128.493L51.658 128.563C51.616 129.136 51.5461 129.738 51.4621 130.381H70.4036V137.068H62.3737V138.663H69.5223V144.566H62.3737V146.679H71.6346ZM55.2672 137.068H49.5876L48.8461 138.663H55.2812V137.068H55.2672ZM52.3155 144.566V146.679H55.2672V144.566H52.3155Z" fill="black"/>
<path d="M112.722 149.378C112.218 150.344 111.896 151.365 111.728 152.456C111.561 153.547 111.421 154.988 111.295 156.793C107.392 156.961 104.132 157.058 101.488 157.058C97.8651 157.058 94.9833 156.863 92.815 156.471C90.6467 156.079 88.7581 155.436 87.1353 154.54C86.1001 155.338 84.5333 156.303 82.4629 157.436L82.2951 156.695C81.9313 154.89 81.5956 153.421 81.3158 152.302C81.036 151.183 80.7003 150.106 80.3086 149.085C80.8542 148.931 81.3578 148.735 81.8334 148.497C82.3091 148.245 82.6868 148.007 82.9665 147.756V145.042H81.022L81.05 138.914H88.94C89.9192 136.928 90.6606 135.123 91.1643 133.473C91.6679 131.822 92.0736 130.213 92.3533 128.632L98.6205 129.444L98.2288 131.22H99.5998L100.187 128.772L106.972 129.696L106.161 131.22H111.519V135.753H105.797V136.494H111.029V140.09H105.797V140.831H111.029V144.426H105.797V145.168H111.673V149.406H90.8845V140.495C90.6187 140.425 90.2829 140.341 89.8772 140.229V149.364C92.5352 150.036 96.2703 150.372 101.055 150.372C104.818 150.372 108.707 150.036 112.722 149.364V149.378ZM89.0379 138.173C86.1841 137.264 83.4702 136.55 80.9101 136.061L82.8267 129.64C85.8623 130.479 88.4923 131.332 90.7166 132.2L89.0239 138.173H89.0379ZM97.3195 136.508H99.7257V135.767H97.3195V136.508ZM97.3195 140.845H99.7257V140.104H97.3195V140.845ZM97.3195 145.182H99.7257V144.44H97.3195V145.182Z" fill="black"/>
<path d="M152.549 135.123H145.246V135.935H152.003V152.05C152.003 153.505 151.877 154.569 151.625 155.226C151.374 155.883 150.828 156.359 150.003 156.639C149.163 156.919 147.806 157.073 145.932 157.073C145.89 155.981 145.806 154.988 145.666 154.107C145.54 153.212 145.302 152.246 144.98 151.211L145.624 151.281C145.736 151.281 145.806 151.253 145.848 151.211C145.89 151.155 145.918 151.057 145.918 150.917V150.4H144.421V156.303H139.315V150.4H137.72V156.779H131.649V149.868L130.446 152.386C130.334 152.12 130.222 151.771 130.124 151.351C129.97 150.931 129.816 150.484 129.662 149.994C129.508 149.504 129.34 149.029 129.145 148.525V157.282H123.199V152.008L121.674 153.715C121.59 151.911 121.45 150.302 121.255 148.889C121.059 147.476 120.737 146.091 120.275 144.734C121.828 143.279 123.325 141.055 124.752 138.089H121.506V130.927H123.129V128.814H129.788V130.927H131.019V138.061C130.152 140.048 129.522 141.447 129.131 142.3V143.783C129.774 142.44 130.264 141.293 130.599 140.327L131.635 141.67V135.949H138.685V135.137H131.761V129.752H138.685V128.674H145.218V129.752H145.61L146.491 127.821C147.429 128.297 148.366 128.94 149.317 129.752H152.535V135.137L152.549 135.123ZM131.663 146.93V144.3C131.201 144.818 130.753 145.308 130.292 145.741C130.418 145.867 130.879 146.259 131.663 146.93ZM139.329 141.363V140.02H137.734V141.363H139.329ZM137.734 145.182V146.525H139.329V145.182H137.734ZM144.421 141.363H145.918V140.02H144.421V141.363ZM144.421 145.182V146.525H145.918V145.182H144.421Z" fill="black"/>
<path d="M163.335 154.317C163.74 153.603 164.132 152.764 164.468 151.799C165.825 151.869 167.266 151.911 168.749 151.911C169.112 151.939 169.63 151.953 170.273 151.953C170.19 153.114 170.05 154.093 169.882 154.862C169.714 155.632 169.448 156.513 169.098 157.478C166.091 157.059 163.517 156.779 161.404 156.667C162.272 155.828 162.915 155.044 163.321 154.331L163.335 154.317ZM164.51 139.726V135.935H162.104V130.101H166.259L165.993 129.206L172.036 128.8L172.358 130.101H173.813V128.73H180.57V130.101H182.038L182.36 128.8L188.404 129.206L188.138 130.101H192.293V135.935H190.208V139.726H164.482H164.51ZM180.626 148.637H192.293V151.309H162.216V148.637H173.883V148.301H162.901V145.783H173.883V145.336H162.831V140.244H191.677V145.336H180.64V145.783H191.621V148.301H180.64V148.637H180.626ZM185.564 133.865H168.861V134.34H185.564V133.865ZM170.259 142.034H169.868V143.489H170.455L170.259 142.034ZM175.072 151.911L176.149 151.869C176.191 152.037 176.247 152.232 176.289 152.428C176.345 152.624 176.387 152.848 176.429 153.1C176.904 155.058 177.198 156.373 177.31 157.073C175.491 157.073 173.309 157.185 170.777 157.408C170.903 154.862 170.959 153.072 170.945 152.023C171.826 152.051 173.211 152.023 175.072 151.911ZM172.764 137.32H181.982V136.578H172.764V137.32ZM173.869 143.489V142.034H173.281L173.351 143.489H173.869ZM178.191 151.995C180.01 151.897 181.381 151.799 182.29 151.701C182.724 152.344 183.172 153.156 183.633 154.149C184.095 155.142 184.487 156.121 184.78 157.087C182.92 157.087 180.779 157.199 178.345 157.422C178.149 156.485 177.912 155.478 177.632 154.415C177.352 153.352 177.114 152.568 176.918 152.079L178.191 152.009V151.995ZM180.626 142.048V143.503H181.017L181.115 142.048H180.626ZM189.914 152.708C191.173 154.149 192.153 155.324 192.866 156.233C190.936 156.457 188.725 156.835 186.207 157.38C185.774 156.541 185.312 155.674 184.822 154.778C184.333 153.883 183.815 153.016 183.242 152.148C185.466 151.855 187.284 151.575 188.697 151.337L189.9 152.708H189.914ZM184.612 143.503V142.048H184.151C184.067 142.692 183.983 143.181 183.927 143.503H184.612Z" fill="black"/>
<path d="M9.32707 164.32L9.14521 164.614C8.44575 165.719 7.84421 166.684 7.35459 167.523C6.86496 168.363 6.44528 169.146 6.10954 169.846V171.524H3.5635V169.678C3.32568 169.188 3.03191 168.67 2.71016 168.139C2.3884 167.607 1.92676 166.894 1.32522 165.971C0.849585 165.271 0.499853 164.712 0.248047 164.32H2.97595C3.1718 164.726 3.49355 165.327 3.92722 166.11C4.37488 166.922 4.66865 167.481 4.83652 167.817C5.06035 167.342 5.36811 166.74 5.75981 166.04C6.20747 165.215 6.51523 164.642 6.66911 164.32H9.32707Z" fill="#7D7D7D"/>
<path d="M11.0199 170.628C10.3204 169.971 9.9707 169.048 9.9707 167.859C9.9707 166.669 10.3204 165.76 11.0199 165.103C11.7194 164.445 12.8245 164.109 14.3214 164.109C15.8182 164.109 16.9373 164.445 17.6368 165.103C18.3363 165.76 18.686 166.683 18.686 167.859C18.686 169.034 18.3363 169.985 17.6368 170.642C16.9373 171.3 15.8322 171.622 14.3214 171.622C12.8105 171.622 11.7333 171.286 11.0199 170.628ZM15.8742 169.173C16.1959 168.894 16.3498 168.46 16.3498 167.859C16.3498 167.257 16.1959 166.837 15.8742 166.557C15.5524 166.278 15.0348 166.138 14.3074 166.138C13.5799 166.138 13.0763 166.278 12.7546 166.557C12.4328 166.837 12.2789 167.271 12.2789 167.859C12.2789 168.446 12.4328 168.88 12.7546 169.173C13.0763 169.453 13.5939 169.593 14.3074 169.593C15.0208 169.593 15.5524 169.453 15.8742 169.173Z" fill="#7D7D7D"/>
<path d="M25.9327 164.305H28.3528V168.25C28.3528 169.23 28.0171 170.027 27.3736 170.657C26.7301 171.286 25.6529 171.608 24.1281 171.608C22.6033 171.608 21.5401 171.3 20.9665 170.699C20.393 170.097 20.1272 169.3 20.1411 168.306V164.292H22.5613V168.153C22.5613 168.446 22.5893 168.684 22.6312 168.866C22.6732 169.048 22.8131 169.216 23.0369 169.384C23.2747 169.537 23.6385 169.621 24.1561 169.621C24.7156 169.621 25.1213 169.537 25.3871 169.384C25.6529 169.216 25.8068 169.048 25.8488 168.838C25.9047 168.642 25.9187 168.39 25.9187 168.069V164.305H25.9327Z" fill="#7D7D7D"/>
<path d="M38.2705 166.404C37.2493 166.376 36.2561 166.348 35.2908 166.348V171.524H32.8427V166.348C31.8774 166.348 30.8842 166.376 29.877 166.404V164.32H38.2705V166.404Z" fill="#7D7D7D"/>
<path d="M47.9513 164.32C47.9093 165.439 47.8813 166.642 47.8813 167.915C47.8813 169.188 47.9093 170.405 47.9513 171.51H45.6571V168.81H42.0618V171.51H39.7676C39.8235 170.223 39.8515 169.02 39.8515 167.915C39.8515 166.81 39.8235 165.593 39.7676 164.32H42.0618V167.02H45.6571V164.32H47.9513Z" fill="#7D7D7D"/>
<path d="M59.1287 168.81L59.6323 164.32H62.0245L60.7095 171.524H57.7018L57.0303 167.509L56.2609 171.524H53.3931L52.0781 164.32H54.4703L54.9739 168.754L55.7573 164.32H58.3733L59.1427 168.81H59.1287Z" fill="#7D7D7D"/>
<path d="M68.9067 171.524C68.7808 171.147 68.6129 170.671 68.403 170.111H65.2834L64.7938 171.524H62.3457L65.0876 164.32H68.6828L71.4387 171.524H68.9067ZM67.8575 168.559C67.6057 167.859 67.3539 167.174 67.0881 166.474L66.8502 165.831C66.6264 166.432 66.2907 167.342 65.843 168.559H67.8435H67.8575Z" fill="#7D7D7D"/>
<path d="M80.6723 164.32C80.6303 165.439 80.6024 166.628 80.6024 167.915C80.6024 169.202 80.6303 170.405 80.6723 171.51H77.175L74.8108 166.096L74.9927 171.51H72.4746C72.5306 170.223 72.5585 169.02 72.5585 167.915C72.5585 166.81 72.5306 165.607 72.4746 164.32H76.0698L78.448 169.888L78.2802 164.32H80.6723Z" fill="#7D7D7D"/>
<path d="M90.5478 166.404C89.5266 166.376 88.5334 166.348 87.5681 166.348V171.524H85.12V166.348C84.1548 166.348 83.1615 166.376 82.1543 166.404V164.32H90.5478V166.404Z" fill="#7D7D7D"/>
<path d="M103.097 166.404C102.075 166.376 101.082 166.348 100.117 166.348V171.524H97.6689V166.348C96.7036 166.348 95.7104 166.376 94.7031 166.404V164.32H103.097V166.404Z" fill="#7D7D7D"/>
<path d="M105.055 170.628C104.356 169.971 104.006 169.048 104.006 167.859C104.006 166.669 104.356 165.76 105.055 165.103C105.755 164.445 106.86 164.109 108.357 164.109C109.853 164.109 110.973 164.445 111.672 165.103C112.371 165.76 112.721 166.683 112.721 167.859C112.721 169.034 112.371 169.985 111.672 170.642C110.973 171.3 109.867 171.622 108.357 171.622C106.846 171.622 105.769 171.286 105.055 170.628ZM109.909 169.173C110.231 168.894 110.385 168.46 110.385 167.859C110.385 167.257 110.231 166.837 109.909 166.557C109.588 166.278 109.07 166.138 108.343 166.138C107.615 166.138 107.111 166.278 106.79 166.557C106.468 166.837 106.314 167.271 106.314 167.859C106.314 168.446 106.468 168.88 106.79 169.173C107.111 169.453 107.629 169.593 108.343 169.593C109.056 169.593 109.588 169.453 109.909 169.173Z" fill="#7D7D7D"/>
<path d="M119.171 169.705C121.648 169.705 123.438 169.649 124.557 169.593C124.515 169.859 124.487 170.139 124.473 170.432C124.473 170.726 124.459 171.076 124.459 171.523H116.863C116.919 170.236 116.947 169.033 116.947 167.928C116.947 166.823 116.919 165.606 116.863 164.333H124.459V166.124H119.171V167.075C119.479 167.075 119.941 167.075 120.556 167.075C121.592 167.075 122.669 167.061 123.774 167.019V168.726C122.669 168.684 121.592 168.67 120.556 168.67C119.941 168.67 119.479 168.67 119.171 168.67V169.705Z" fill="#7D7D7D"/>
<path d="M131.621 171.524C131.496 171.147 131.328 170.671 131.118 170.111H127.998L127.509 171.524H125.061L127.802 164.32H131.398L134.154 171.524H131.621ZM130.572 168.559C130.32 167.859 130.069 167.174 129.803 166.474L129.565 165.831C129.341 166.432 129.006 167.342 128.558 168.559H130.558H130.572Z" fill="#7D7D7D"/>
<path d="M143.19 166.404C142.169 166.376 141.176 166.348 140.211 166.348V171.524H137.763V166.348C136.797 166.348 135.804 166.376 134.797 166.404V164.32H143.19V166.404Z" fill="#7D7D7D"/>
<path d="M151.78 164.32C153.081 164.32 153.976 164.558 154.494 165.019C154.998 165.481 155.263 166.138 155.263 166.992C155.263 167.579 155.165 168.069 154.956 168.475C154.746 168.88 154.396 169.202 153.892 169.426C153.389 169.65 152.689 169.762 151.794 169.762H149.766V171.51H147.359C147.415 170.223 147.443 169.02 147.443 167.915C147.443 166.81 147.415 165.593 147.359 164.32H149.766H151.794H151.78ZM151.095 167.845C151.64 167.845 152.046 167.817 152.312 167.775C152.577 167.733 152.773 167.649 152.885 167.537C152.997 167.425 153.053 167.258 153.053 167.048C153.053 166.838 152.997 166.67 152.899 166.558C152.801 166.446 152.605 166.376 152.34 166.334C152.074 166.292 151.654 166.278 151.108 166.278H149.766V167.845H151.108H151.095Z" fill="#7D7D7D"/>
<path d="M161.936 171.524C161.81 171.147 161.642 170.671 161.432 170.111H158.313L157.823 171.524H155.375L158.117 164.32H161.712L164.468 171.524H161.936ZM160.887 168.559C160.635 167.859 160.383 167.174 160.117 166.474L159.88 165.831C159.656 166.432 159.32 167.342 158.872 168.559H160.873H160.887Z" fill="#7D7D7D"/>
<path d="M173.128 168.18C172.848 168.572 172.372 168.866 171.701 169.048C171.785 169.159 171.841 169.229 171.869 169.299L173.45 171.538H170.792C170.498 170.992 170.05 170.223 169.435 169.229H167.994V171.538H165.686C165.742 170.251 165.769 169.048 165.769 167.942C165.769 166.837 165.742 165.62 165.686 164.347H167.994H169.994C171.309 164.347 172.233 164.557 172.75 164.991C173.268 165.424 173.534 165.998 173.534 166.739C173.534 167.313 173.394 167.803 173.114 168.194L173.128 168.18ZM167.994 166.236V167.369H169.309C169.868 167.369 170.288 167.355 170.568 167.313C170.848 167.271 171.043 167.215 171.155 167.145C171.267 167.075 171.323 166.949 171.323 166.795C171.323 166.641 171.267 166.543 171.169 166.46C171.071 166.376 170.876 166.32 170.582 166.292C170.302 166.264 169.868 166.236 169.309 166.236H167.994Z" fill="#7D7D7D"/>
<path d="M182.935 166.404C181.913 166.376 180.92 166.348 179.955 166.348V171.524H177.507V166.348C176.541 166.348 175.548 166.376 174.541 166.404V164.32H182.935V166.404Z" fill="#7D7D7D"/>
<path d="M193.132 164.32L192.95 164.614C192.25 165.719 191.649 166.684 191.159 167.523C190.67 168.363 190.25 169.146 189.914 169.846V171.524H187.368V169.678C187.13 169.188 186.837 168.67 186.515 168.139C186.193 167.607 185.731 166.894 185.13 165.971C184.654 165.271 184.305 164.712 184.053 164.32H186.795C186.99 164.726 187.312 165.327 187.746 166.11C188.194 166.922 188.487 167.481 188.655 167.817C188.879 167.342 189.187 166.74 189.579 166.04C190.026 165.215 190.334 164.642 190.488 164.32H193.146H193.132Z" fill="#7D7D7D"/>
</svg>
